<?xml version="1.0" encoding="UTF-8" standalone="no"?>
<!-- Created with Inkscape (http://www.inkscape.org/) -->

<svg
   width="345.5"
   height="351.5"
   viewBox="0 0 69.1 70.3"
   version="1.1"
   id="svg5"
   xml:space="preserve"
   xmlns:xlink="http://www.w3.org/1999/xlink"
   xmlns="http://www.w3.org/2000/svg"
   xmlns:svg="http://www.w3.org/2000/svg"
   xmlns:rdf="http://www.w3.org/1999/02/22-rdf-syntax-ns#"
   xmlns:cc="http://creativecommons.org/ns#"
   xmlns:dc="http://purl.org/dc/elements/1.1/"><title
     id="title18346">Bangladesh Nationalist Party - বাংলাদেশ জাতীয়তাবাদী দল</title><defs
     id="defs2"><radialGradient
       xlink:href="#linearGradient12704"
       id="radialGradient16834"
       gradientUnits="userSpaceOnUse"
       gradientTransform="matrix(0.4655764,0.29812719,0.43322988,-0.67656225,28.781592,88.697221)"
       cx="125.80585"
       cy="92.841927"
       fx="125.80585"
       fy="92.841927"
       r="1.5208142" /><linearGradient
       id="linearGradient12704"><stop
         style="stop-color:#e3dd1e;stop-opacity:1;"
         offset="0"
         id="stop12700" /><stop
         style="stop-color:#fab118;stop-opacity:1;"
         offset="1"
         id="stop12702" /></linearGradient><radialGradient
       xlink:href="#linearGradient12704"
       id="radialGradient16830"
       gradientUnits="userSpaceOnUse"
       gradientTransform="matrix(0.31717879,0.45281212,0.65801358,-0.4609151,29.314165,45.780757)"
       cx="125.59669"
       cy="93.074409"
       fx="125.59669"
       fy="93.074409"
       r="1.5208142" /><radialGradient
       xlink:href="#linearGradient12704"
       id="radialGradient13212"
       gradientUnits="userSpaceOnUse"
       gradientTransform="matrix(0.01533953,0.65197569,-0.94743236,0.02229097,242.67524,-24.206712)"
       cx="125.41116"
       cy="92.403976"
       fx="125.41116"
       fy="92.403976"
       r="1.5208142" /><radialGradient
       xlink:href="#linearGradient12704"
       id="radialGradient13208"
       gradientUnits="userSpaceOnUse"
       gradientTransform="matrix(0.09008717,0.64590394,-0.93860907,0.1309121,226.03554,-35.761538)"
       cx="125.41116"
       cy="92.403976"
       fx="125.41116"
       fy="92.403976"
       r="1.5208142" /><radialGradient
       xlink:href="#linearGradient12704"
       id="radialGradient13138"
       gradientUnits="userSpaceOnUse"
       gradientTransform="matrix(0.39472413,0.51913434,-0.75439111,0.57360179,162.4447,-59.269052)"
       cx="125.41116"
       cy="92.403976"
       fx="125.41116"
       fy="92.403976"
       r="1.5208142" /><radialGradient
       xlink:href="#linearGradient12704"
       id="radialGradient13070"
       gradientUnits="userSpaceOnUse"
       gradientTransform="matrix(0.65066459,0.04408163,-0.06405815,0.94552711,61.258201,-33.153379)"
       cx="125.41116"
       cy="92.403976"
       fx="125.41116"
       fy="92.403976"
       r="1.5208142" /><radialGradient
       xlink:href="#linearGradient12704"
       id="radialGradient13066"
       gradientUnits="userSpaceOnUse"
       gradientTransform="matrix(0.43586206,0.48511016,-0.70494815,0.63338225,144.72803,-56.335001)"
       cx="125.41116"
       cy="92.403976"
       fx="125.41116"
       fy="92.403976"
       r="1.5208142" /><radialGradient
       xlink:href="#linearGradient12704"
       id="radialGradient12970"
       gradientUnits="userSpaceOnUse"
       gradientTransform="matrix(0.30628062,-0.80719355,1.1729904,0.44507827,-35.40719,122.25441)"
       cx="125.41116"
       cy="92.403976"
       fx="125.41116"
       fy="92.403976"
       r="1.5208142" /><radialGradient
       xlink:href="#linearGradient12704"
       id="radialGradient13356"
       gradientUnits="userSpaceOnUse"
       gradientTransform="matrix(-0.1367323,0.63766126,-0.92663104,-0.19869546,265.80296,-4.9290648)"
       cx="125.41116"
       cy="92.403976"
       fx="125.41116"
       fy="92.403976"
       r="1.5208142" /><radialGradient
       xlink:href="#linearGradient12704"
       id="radialGradient13360"
       gradientUnits="userSpaceOnUse"
       gradientTransform="matrix(0.10865673,0.64304068,-0.93444826,0.15789684,233.18096,-42.599841)"
       cx="125.41116"
       cy="92.403976"
       fx="125.41116"
       fy="92.403976"
       r="1.5208142" /><radialGradient
       xlink:href="#linearGradient12704"
       id="radialGradient13364"
       gradientUnits="userSpaceOnUse"
       gradientTransform="matrix(-0.2478914,0.49415691,0.71809465,0.36022867,121.40045,-47.61388)"
       cx="125.41116"
       cy="92.403976"
       fx="125.41116"
       fy="92.403976"
       r="1.5208142" /><radialGradient
       xlink:href="#linearGradient12704"
       id="radialGradient15052"
       gradientUnits="userSpaceOnUse"
       gradientTransform="matrix(-0.2478914,0.49415691,0.71809465,0.36022867,115.85045,-45.76388)"
       cx="125.41116"
       cy="92.403976"
       fx="125.41116"
       fy="92.403976"
       r="1.5208142" /><radialGradient
       xlink:href="#linearGradient12704"
       id="radialGradient15056"
       gradientUnits="userSpaceOnUse"
       gradientTransform="matrix(-0.01745251,0.55257272,0.80298282,0.02536149,73.454261,-20.448643)"
       cx="125.68235"
       cy="92.409874"
       fx="125.68235"
       fy="92.409874"
       r="1.5208142" /><radialGradient
       xlink:href="#linearGradient12704"
       id="radialGradient15060"
       gradientUnits="userSpaceOnUse"
       gradientTransform="matrix(0.14325179,0.53396641,0.77594466,-0.20816938,48.927336,5.2519808)"
       cx="125.76057"
       cy="92.33947"
       fx="125.76057"
       fy="92.33947"
       r="1.5208142" /><radialGradient
       xlink:href="#linearGradient12704"
       id="radialGradient15064"
       gradientUnits="userSpaceOnUse"
       gradientTransform="matrix(0.14325179,0.53396641,0.77594466,-0.20816938,52.639836,-0.29801919)"
       cx="126.02263"
       cy="92.291092"
       fx="126.02263"
       fy="92.291092"
       r="1.5208142" /><radialGradient
       xlink:href="#linearGradient12704"
       id="radialGradient15068"
       gradientUnits="userSpaceOnUse"
       gradientTransform="matrix(-0.17252759,0.52523845,0.76326144,0.25071215,98.553068,-42.84674)"
       cx="125.41116"
       cy="92.403976"
       fx="125.41116"
       fy="92.403976"
       r="1.5208142" /><radialGradient
       xlink:href="#linearGradient12704"
       id="radialGradient13062"
       gradientUnits="userSpaceOnUse"
       gradientTransform="matrix(0.53631449,0.49918772,-0.72540525,0.77935684,136.3401,-68.670395)"
       cx="125.41116"
       cy="92.403976"
       fx="125.41116"
       fy="92.403976"
       r="1.5208142" /><radialGradient
       xlink:href="#linearGradient12704"
       id="radialGradient13058"
       gradientUnits="userSpaceOnUse"
       gradientTransform="matrix(0.7287273,0.07601402,-0.11046137,1.0589656,50.320616,-39.317248)"
       cx="125.41116"
       cy="92.403976"
       fx="125.41116"
       fy="92.403976"
       r="1.5208142" /><radialGradient
       xlink:href="#linearGradient12704"
       id="radialGradient12998"
       gradientUnits="userSpaceOnUse"
       gradientTransform="matrix(0.91826822,0.07541595,-0.10784307,1.3560447,29.232369,-63.23875)"
       cx="125.41116"
       cy="92.403976"
       fx="125.41116"
       fy="92.403976"
       r="1.5208142" /><radialGradient
       xlink:href="#linearGradient12704"
       id="radialGradient12994"
       gradientUnits="userSpaceOnUse"
       gradientTransform="matrix(0.73030002,0.0590211,-0.08576775,1.061251,47.16466,-33.980738)"
       cx="125.41116"
       cy="92.403976"
       fx="125.41116"
       fy="92.403976"
       r="1.5208142" /><radialGradient
       xlink:href="#linearGradient12704"
       id="radialGradient12986"
       gradientUnits="userSpaceOnUse"
       gradientTransform="matrix(0.94765248,0.076587,-0.11129402,1.3771014,24.548132,-59.929945)"
       cx="125.41116"
       cy="92.403976"
       fx="125.41116"
       fy="92.403976"
       r="1.5208142" /><radialGradient
       xlink:href="#linearGradient12704"
       id="radialGradient12982"
       gradientUnits="userSpaceOnUse"
       gradientTransform="matrix(0.9465293,-0.08940405,0.1299194,1.3754692,-2.9425031,-41.065297)"
       cx="125.41116"
       cy="92.403976"
       fx="125.41116"
       fy="92.403976"
       r="1.5208142" /><radialGradient
       xlink:href="#linearGradient12704"
       id="radialGradient12978"
       gradientUnits="userSpaceOnUse"
       gradientTransform="matrix(0.94834109,-0.06752764,0.09812923,1.378102,-1.9390015,-38.552184)"
       cx="125.41116"
       cy="92.403976"
       fx="125.41116"
       fy="92.403976"
       r="1.5208142" /><radialGradient
       xlink:href="#linearGradient12704"
       id="radialGradient12974"
       gradientUnits="userSpaceOnUse"
       gradientTransform="matrix(0.98914893,-0.14691628,0.21349452,1.4374028,-14.411307,-32.438074)"
       cx="125.41116"
       cy="92.403976"
       fx="125.41116"
       fy="92.403976"
       r="1.5208142" /><radialGradient
       xlink:href="#linearGradient12704"
       id="radialGradient12966"
       gradientUnits="userSpaceOnUse"
       gradientTransform="matrix(0.71376131,-0.70038905,1.0177852,1.0372175,-69.071733,57.957542)"
       cx="125.41116"
       cy="92.403976"
       fx="125.41116"
       fy="92.403976"
       r="1.5208142" /><radialGradient
       xlink:href="#linearGradient12704"
       id="radialGradient12962"
       gradientUnits="userSpaceOnUse"
       gradientTransform="matrix(0.98918173,-0.14669535,0.2131734,1.4374505,-27.259675,-42.906606)"
       cx="125.41116"
       cy="92.403976"
       fx="125.41116"
       fy="92.403976"
       r="1.5208142" /><radialGradient
       xlink:href="#linearGradient12704"
       id="radialGradient12958"
       gradientUnits="userSpaceOnUse"
       gradientTransform="matrix(0.76221582,-0.647323,0.94067115,1.1076302,-66.39113,55.893226)"
       cx="125.41116"
       cy="92.403976"
       fx="125.41116"
       fy="92.403976"
       r="1.5208142" /><radialGradient
       xlink:href="#linearGradient12704"
       id="radialGradient12954"
       gradientUnits="userSpaceOnUse"
       gradientTransform="matrix(0.87423212,-0.48550821,0.70552657,1.270409,-55.722532,25.149824)"
       cx="125.41116"
       cy="92.403976"
       fx="125.41116"
       fy="92.403976"
       r="1.5208142" /><radialGradient
       xlink:href="#linearGradient12704"
       id="radialGradient16822"
       gradientUnits="userSpaceOnUse"
       gradientTransform="matrix(0.14325179,0.53396641,0.77594466,-0.20816938,46.912271,-0.54550656)"
       cx="125.61888"
       cy="92.816689"
       fx="125.61888"
       fy="92.816689"
       r="1.5208142" /><radialGradient
       xlink:href="#linearGradient12704"
       id="radialGradient16826"
       gradientUnits="userSpaceOnUse"
       gradientTransform="matrix(0.31717879,0.45281212,0.65801358,-0.4609151,32.337047,39.222341)"
       cx="125.92252"
       cy="92.689392"
       fx="125.92252"
       fy="92.689392"
       r="1.5208142" /><radialGradient
       xlink:href="#linearGradient12704"
       id="radialGradient17000"
       gradientUnits="userSpaceOnUse"
       gradientTransform="matrix(0.53346609,0.14510386,0.21086078,-0.77521761,34.453546,126.09381)"
       cx="125.99813"
       cy="93.026138"
       fx="125.99813"
       fy="93.026138"
       r="1.5208142" /><radialGradient
       xlink:href="#linearGradient12704"
       id="radialGradient17004"
       gradientUnits="userSpaceOnUse"
       gradientTransform="matrix(0.34497823,0.43200835,0.62778216,-0.50131246,21.724656,60.155622)"
       cx="125.99813"
       cy="93.026138"
       fx="125.99813"
       fy="93.026138"
       r="1.5208142" /><radialGradient
       xlink:href="#linearGradient12704"
       id="radialGradient17008"
       gradientUnits="userSpaceOnUse"
       gradientTransform="matrix(0.52006482,0.18754673,0.27253755,-0.75574328,32.010863,108.68132)"
       cx="125.99813"
       cy="93.026138"
       fx="125.99813"
       fy="93.026138"
       r="1.5208142" /><radialGradient
       xlink:href="#linearGradient12704"
       id="radialGradient17012"
       gradientUnits="userSpaceOnUse"
       gradientTransform="matrix(0.31109019,0.45701651,0.6641233,-0.45206732,24.410008,41.861095)"
       cx="125.99813"
       cy="93.026138"
       fx="125.99813"
       fy="93.026138"
       r="1.5208142" /><radialGradient
       xlink:href="#linearGradient12704"
       id="radialGradient17016"
       gradientUnits="userSpaceOnUse"
       gradientTransform="matrix(0.31109019,0.45701651,0.6641233,-0.45206732,24.272508,37.948595)"
       cx="125.99813"
       cy="93.026138"
       fx="125.99813"
       fy="93.026138"
       r="1.5208142" /><radialGradient
       xlink:href="#linearGradient12704"
       id="radialGradient17020"
       gradientUnits="userSpaceOnUse"
       gradientTransform="matrix(0.21894123,0.50764745,0.73769873,-0.31815909,32.764236,15.517391)"
       cx="125.99813"
       cy="93.026138"
       fx="125.99813"
       fy="93.026138"
       r="1.5208142" /><radialGradient
       xlink:href="#linearGradient12704"
       id="radialGradient12950"
       gradientUnits="userSpaceOnUse"
       gradientTransform="matrix(0.58940787,-0.80783561,1.1739235,0.8565106,-63.511514,109.23929)"
       cx="125.41116"
       cy="92.403976"
       fx="125.41116"
       fy="92.403976"
       r="1.5208142" /><radialGradient
       xlink:href="#linearGradient12704"
       id="radialGradient11870"
       cx="125.41116"
       cy="92.403976"
       fx="125.41116"
       fy="92.403976"
       r="1.5208142"
       gradientTransform="matrix(1.0412424,0,0,1.5131036,-5.1722563,-47.41281)"
       gradientUnits="userSpaceOnUse" /><radialGradient
       xlink:href="#linearGradient12704"
       id="radialGradient11870-2"
       cx="125.41116"
       cy="92.403976"
       fx="125.41116"
       fy="92.403976"
       r="1.5208142"
       gradientTransform="matrix(0.97972421,-0.20035089,0.29114416,1.4237071,-23.242894,-19.475069)"
       gradientUnits="userSpaceOnUse" /></defs><g
     id="layer1"
     transform="translate(-38.929296,-33.740718)"><g
       id="g17107"
       transform="translate(-57.356928,-10.338095)"><g
         id="g17061"><path
           style="font-variation-settings:normal;fill:url(#radialGradient16834);fill-opacity:1;fill-rule:evenodd;stroke-width:0.110569;stroke-linecap:butt;stroke-linejoin:miter;stroke-miterlimit:4;stroke-dasharray:none;stroke-dashoffset:0;stroke-opacity:1;stop-color:#000000"
           d="m 128.18113,60.76822 c 1.28973,0.476318 0.89972,5.311058 -0.86242,5.195657 -1.51935,-0.0995 -0.75409,-5.79267 0.86242,-5.195657 z"
           id="path16832" /><path
           style="font-variation-settings:normal;fill:url(#radialGradient16830);fill-opacity:1;fill-rule:evenodd;stroke-width:0.110569;stroke-linecap:butt;stroke-linejoin:miter;stroke-miterlimit:4;stroke-dasharray:none;stroke-dashoffset:0;stroke-opacity:1;stop-color:#000000"
           d="m 131.86554,57.760485 c 1.0116,0.931098 -1.5505,5.280728 -2.83507,4.560032 -1.32789,-0.744994 1.56716,-5.727052 2.83507,-4.560032 z"
           id="path16828" /><path
           style="font-variation-settings:normal;fill:url(#radialGradient13212);fill-opacity:1;fill-rule:evenodd;stroke-width:0.130431;stroke-linecap:butt;stroke-linejoin:miter;stroke-miterlimit:4;stroke-dasharray:none;stroke-dashoffset:0;stroke-opacity:1;stop-color:#000000"
           d="m 154.68634,57.867089 c -0.88326,1.699586 4.66769,5.174629 5.12741,3.602822 0.58502,-2.000211 -4.49255,-4.824428 -5.12741,-3.602822 z"
           id="path13210" /><path
           style="font-variation-settings:normal;fill:url(#radialGradient13208);fill-opacity:1;fill-rule:evenodd;stroke-width:0.130431;stroke-linecap:butt;stroke-linejoin:miter;stroke-miterlimit:4;stroke-dasharray:none;stroke-dashoffset:0;stroke-opacity:1;stop-color:#000000"
           d="m 148.05076,55.87104 c -0.62752,1.679191 5.24337,4.595945 5.50712,2.990357 0.32839,-1.99911 -5.12539,-4.011836 -5.50712,-2.990357 z"
           id="path13206" /><path
           style="font-variation-settings:normal;fill:url(#radialGradient13138);fill-opacity:1;fill-rule:evenodd;stroke-width:0.130431;stroke-linecap:butt;stroke-linejoin:miter;stroke-miterlimit:4;stroke-dasharray:none;stroke-dashoffset:0;stroke-opacity:1;stop-color:#000000"
           d="m 139.29537,58.808312 c 0.26918,1.655106 6.33799,0.988769 5.80727,-0.293492 -0.71665,-1.731474 -5.98232,-0.782841 -5.80727,0.293492 z"
           id="path13136" /><path
           style="font-variation-settings:normal;fill:url(#radialGradient13070);fill-opacity:1;fill-rule:evenodd;stroke-width:0.130431;stroke-linecap:butt;stroke-linejoin:miter;stroke-miterlimit:4;stroke-dasharray:none;stroke-dashoffset:0;stroke-opacity:1;stop-color:#000000"
           d="m 135.34716,61.480253 c 1.42382,0.885761 4.23689,-3.223435 2.92192,-3.666962 -1.77564,-0.598911 -3.84784,3.090937 -2.92192,3.666962 z"
           id="path13068" /><path
           style="font-variation-settings:normal;fill:url(#radialGradient13066);fill-opacity:1;fill-rule:evenodd;stroke-width:0.130431;stroke-linecap:butt;stroke-linejoin:miter;stroke-miterlimit:4;stroke-dasharray:none;stroke-dashoffset:0;stroke-opacity:1;stop-color:#000000"
           d="m 131.67359,63.343428 c 0.40365,1.627542 5.50277,0.0076 4.93689,-1.098448 -0.66108,-1.29212 -5.19938,0.04004 -4.93689,1.098448 z"
           id="path13064" /><path
           style="font-variation-settings:normal;fill:url(#radialGradient12970);fill-opacity:1;fill-rule:evenodd;stroke-width:0.17267;stroke-linecap:butt;stroke-linejoin:miter;stroke-miterlimit:4;stroke-dasharray:none;stroke-dashoffset:0;stroke-opacity:1;stop-color:#000000"
           d="m 113.15091,64.39538 c 1.63117,-0.980205 -2.50399,-5.117035 -3.48734,-3.821619 -1.01415,1.336008 2.6304,4.336581 3.48734,3.821619 z"
           id="path12968" /><path
           style="font-variation-settings:normal;fill:url(#radialGradient13356);fill-opacity:1;fill-rule:evenodd;stroke-width:0.130431;stroke-linecap:butt;stroke-linejoin:miter;stroke-miterlimit:4;stroke-dasharray:none;stroke-dashoffset:0;stroke-opacity:1;stop-color:#000000"
           d="m 161.13686,54.427181 c -1.26821,1.172071 2.50167,4.882797 3.37375,3.634151 1.07174,-1.534522 -2.51775,-4.425265 -3.37375,-3.634151 z"
           id="path13354" /><path
           style="font-variation-settings:normal;fill:url(#radialGradient13360);fill-opacity:1;fill-rule:evenodd;stroke-width:0.130431;stroke-linecap:butt;stroke-linejoin:miter;stroke-miterlimit:4;stroke-dasharray:none;stroke-dashoffset:0;stroke-opacity:1;stop-color:#000000"
           d="m 157.86826,51.241263 c -0.8517,1.636915 5.29504,4.723413 5.89234,2.995897 0.66421,-1.921027 -5.28859,-4.156266 -5.89234,-2.995897 z"
           id="path13358" /><path
           style="font-variation-settings:normal;fill:url(#radialGradient13364);fill-opacity:1;fill-rule:evenodd;stroke-width:0.110569;stroke-linecap:butt;stroke-linejoin:miter;stroke-miterlimit:4;stroke-dasharray:none;stroke-dashoffset:0;stroke-opacity:1;stop-color:#000000"
           d="m 159.21186,47.204569 c 0.2834,1.538361 -5.56271,2.467892 -5.61743,0.919337 -0.0608,-1.722022 5.41651,-2.00984 5.61743,-0.919337 z"
           id="path13362" /><path
           style="font-variation-settings:normal;fill:url(#radialGradient15052);fill-opacity:1;fill-rule:evenodd;stroke-width:0.110569;stroke-linecap:butt;stroke-linejoin:miter;stroke-miterlimit:4;stroke-dasharray:none;stroke-dashoffset:0;stroke-opacity:1;stop-color:#000000"
           d="m 153.66186,49.054569 c 0.2834,1.538361 -5.56271,2.467892 -5.61743,0.919337 -0.0608,-1.722022 5.41651,-2.00984 5.61743,-0.919337 z"
           id="path15050" /><path
           style="font-variation-settings:normal;fill:url(#radialGradient15056);fill-opacity:1;fill-rule:evenodd;stroke-width:0.110569;stroke-linecap:butt;stroke-linejoin:miter;stroke-miterlimit:4;stroke-dasharray:none;stroke-dashoffset:0;stroke-opacity:1;stop-color:#000000"
           d="m 147.80134,49.824751 c 0.89801,1.556216 -4.55783,5.027375 -4.92451,3.093376 -0.36574,-1.929041 4.29472,-4.184773 4.92451,-3.093376 z"
           id="path15054" /><path
           style="font-variation-settings:normal;fill:url(#radialGradient15060);fill-opacity:1;fill-rule:evenodd;stroke-width:0.110569;stroke-linecap:butt;stroke-linejoin:miter;stroke-miterlimit:4;stroke-dasharray:none;stroke-dashoffset:0;stroke-opacity:1;stop-color:#000000"
           d="m 140.43377,50.994851 c 1.31005,1.229634 -2.90737,6.131515 -3.8182,4.386465 -0.9085,-1.740575 2.89944,-5.248823 3.8182,-4.386465 z"
           id="path15058" /><path
           style="font-variation-settings:normal;fill:url(#radialGradient15064);fill-opacity:1;fill-rule:evenodd;stroke-width:0.110569;stroke-linecap:butt;stroke-linejoin:miter;stroke-miterlimit:4;stroke-dasharray:none;stroke-dashoffset:0;stroke-opacity:1;stop-color:#000000"
           d="m 144.45877,45.544851 c 1.08895,1.150567 -3.21987,6.031515 -4.1307,4.286465 -0.9085,-1.740575 3.11552,-5.35908 4.1307,-4.286465 z"
           id="path15062" /><path
           style="font-variation-settings:normal;fill:url(#radialGradient15068);fill-opacity:1;fill-rule:evenodd;stroke-width:0.110569;stroke-linecap:butt;stroke-linejoin:miter;stroke-miterlimit:4;stroke-dasharray:none;stroke-dashoffset:0;stroke-opacity:1;stop-color:#000000"
           d="m 150.42086,45.738073 c 0.28114,1.559031 -6.13842,3.336734 -5.94499,1.377807 0.19293,-1.953907 5.68289,-2.831215 5.94499,-1.377807 z"
           id="path15066" /><path
           style="font-variation-settings:normal;fill:url(#radialGradient13062);fill-opacity:1;fill-rule:evenodd;stroke-width:0.146536;stroke-linecap:butt;stroke-linejoin:miter;stroke-miterlimit:4;stroke-dasharray:none;stroke-dashoffset:0;stroke-opacity:1;stop-color:#000000"
           d="m 133.71797,66.557444 c 0.61469,1.780796 6.15837,-0.542621 5.41439,-1.723598 -0.86917,-1.379676 -5.81412,0.565528 -5.41439,1.723598 z"
           id="path13060" /><path
           style="font-variation-settings:normal;fill:url(#radialGradient13058);fill-opacity:1;fill-rule:evenodd;stroke-width:0.146536;stroke-linecap:butt;stroke-linejoin:miter;stroke-miterlimit:4;stroke-dasharray:none;stroke-dashoffset:0;stroke-opacity:1;stop-color:#000000"
           d="m 129.7758,69.855481 c 1.29883,1.144497 3.89465,-2.922134 2.62168,-3.406693 -1.4868,-0.565952 -3.25827,2.845746 -2.62168,3.406693 z"
           id="path13056" /><path
           style="font-variation-settings:normal;fill:url(#radialGradient12998);fill-opacity:1;fill-rule:evenodd;stroke-width:0.18574;stroke-linecap:butt;stroke-linejoin:miter;stroke-miterlimit:4;stroke-dasharray:none;stroke-dashoffset:0;stroke-opacity:1;stop-color:#000000"
           d="m 132.30814,73.857498 c 1.60634,1.144751 4.81149,-4.053127 3.19581,-4.429841 -1.6446,-0.383458 -3.88905,3.935806 -3.19581,4.429841 z"
           id="path12996" /><path
           style="font-variation-settings:normal;fill:url(#radialGradient12994);fill-opacity:1;fill-rule:evenodd;stroke-width:0.146536;stroke-linecap:butt;stroke-linejoin:miter;stroke-miterlimit:4;stroke-dasharray:none;stroke-dashoffset:0;stroke-opacity:1;stop-color:#000000"
           d="m 129.14096,73.31184 c 1.32513,1.113937 3.82554,-3.012049 2.54163,-3.466828 -1.49958,-0.531171 -3.19111,2.92086 -2.54163,3.466828 z"
           id="path12992" /><path
           style="font-variation-settings:normal;fill:url(#radialGradient12986);fill-opacity:1;fill-rule:evenodd;stroke-width:0.190148;stroke-linecap:butt;stroke-linejoin:miter;stroke-miterlimit:4;stroke-dasharray:none;stroke-dashoffset:0;stroke-opacity:1;stop-color:#000000"
           d="m 130.92228,79.295135 c 1.71951,1.445467 4.9641,-3.908498 3.29807,-4.498629 -1.94589,-0.689258 -4.14085,3.790169 -3.29807,4.498629 z"
           id="path12984" /><path
           style="font-variation-settings:normal;fill:url(#radialGradient12982);fill-opacity:1;fill-rule:evenodd;stroke-width:0.190148;stroke-linecap:butt;stroke-linejoin:miter;stroke-miterlimit:4;stroke-dasharray:none;stroke-dashoffset:0;stroke-opacity:1;stop-color:#000000"
           d="m 126.25429,77.243419 c 2.0265,0.969225 3.87578,-4.248028 2.23177,-4.896985 -2.06415,0.02919 -3.08506,4.20122 -2.23177,4.896985 z"
           id="path12980" /><path
           style="font-variation-settings:normal;fill:url(#radialGradient12978);fill-opacity:1;fill-rule:evenodd;stroke-width:0.190148;stroke-linecap:butt;stroke-linejoin:miter;stroke-miterlimit:4;stroke-dasharray:none;stroke-dashoffset:0;stroke-opacity:1;stop-color:#000000"
           d="m 124.49195,82.707772 c 2.00359,1.015753 3.97283,-4.157415 2.34424,-4.844155 -2.06428,-0.01847 -3.18123,4.128876 -2.34424,4.844155 z"
           id="path12976" /><path
           style="font-variation-settings:normal;fill:url(#radialGradient12974);fill-opacity:1;fill-rule:evenodd;stroke-width:0.2;stroke-linecap:butt;stroke-linejoin:miter;stroke-miterlimit:4;stroke-dasharray:none;stroke-dashoffset:0;stroke-opacity:1;stop-color:#000000"
           d="m 127.91263,84.587531 c 2.18277,0.904492 3.83288,-4.678855 2.0698,-5.268387 -2.16637,0.14627 -3.00498,4.585404 -2.0698,5.268387 z"
           id="path12972" /><path
           style="font-variation-settings:normal;fill:url(#radialGradient12966);fill-opacity:1;fill-rule:evenodd;stroke-width:0.2;stroke-linecap:butt;stroke-linejoin:miter;stroke-miterlimit:4;stroke-dasharray:none;stroke-dashoffset:0;stroke-opacity:1;stop-color:#000000"
           d="m 115.24923,69.178215 c 2.19117,-0.239573 -0.15103,-6.596823 -1.81378,-5.711424 -1.71485,0.913147 0.66262,5.837286 1.81378,5.711424 z"
           id="path12964" /><path
           style="font-variation-settings:normal;fill:url(#radialGradient12962);fill-opacity:1;fill-rule:evenodd;stroke-width:0.2;stroke-linecap:butt;stroke-linejoin:miter;stroke-miterlimit:4;stroke-dasharray:none;stroke-dashoffset:0;stroke-opacity:1;stop-color:#000000"
           d="m 115.21712,74.56886 c 1.91307,1.094874 3.75748,-5.424226 1.89197,-5.686001 -1.92397,-0.269977 -2.89703,5.110791 -1.89197,5.686001 z"
           id="path12960" /><path
           style="font-variation-settings:normal;fill:url(#radialGradient12958);fill-opacity:1;fill-rule:evenodd;stroke-width:0.2;stroke-linecap:butt;stroke-linejoin:miter;stroke-miterlimit:4;stroke-dasharray:none;stroke-dashoffset:0;stroke-opacity:1;stop-color:#000000"
           d="m 116.64814,80.321662 c 2.20271,-0.0816 0.3231,-6.590639 -1.39894,-5.826931 -1.776,0.78764 0.24171,5.869801 1.39894,5.826931 z"
           id="path12956" /><path
           style="font-variation-settings:normal;fill:url(#radialGradient12954);fill-opacity:1;fill-rule:evenodd;stroke-width:0.2;stroke-linecap:butt;stroke-linejoin:miter;stroke-miterlimit:4;stroke-dasharray:none;stroke-dashoffset:0;stroke-opacity:1;stop-color:#000000"
           d="m 118.98777,84.953156 c 2.17602,0.351375 1.6076,-6.39973 -0.23066,-5.98807 -1.89586,0.424561 -0.91256,5.803466 0.23066,5.98807 z"
           id="path12952" /><path
           style="font-variation-settings:normal;fill:url(#radialGradient16822);fill-opacity:1;fill-rule:evenodd;stroke-width:0.110569;stroke-linecap:butt;stroke-linejoin:miter;stroke-miterlimit:4;stroke-dasharray:none;stroke-dashoffset:0;stroke-opacity:1;stop-color:#000000"
           d="m 138.73121,45.297364 c 1.04417,1.191354 -3.16994,5.215417 -4.1307,4.098965 -0.99316,-1.154096 3.22159,-5.136225 4.1307,-4.098965 z"
           id="path16820" /><path
           style="font-variation-settings:normal;fill:url(#radialGradient16826);fill-opacity:1;fill-rule:evenodd;stroke-width:0.110569;stroke-linecap:butt;stroke-linejoin:miter;stroke-miterlimit:4;stroke-dasharray:none;stroke-dashoffset:0;stroke-opacity:1;stop-color:#000000"
           d="m 134.5172,51.131358 c 1.38856,0.762566 -1.41677,5.763939 -2.70134,5.043243 -1.32789,-0.744994 1.49238,-5.707178 2.70134,-5.043243 z"
           id="path16824" /><path
           style="font-variation-settings:normal;fill:url(#radialGradient17000);fill-opacity:1;fill-rule:evenodd;stroke-width:0.110569;stroke-linecap:butt;stroke-linejoin:miter;stroke-miterlimit:4;stroke-dasharray:none;stroke-dashoffset:0;stroke-opacity:1;stop-color:#000000"
           d="m 121.06006,69.631349 c 1.37317,0.06844 2.78692,5.341385 0.60853,5.277464 -1.52194,-0.04466 -2.32963,-5.363256 -0.60853,-5.277464 z"
           id="path16998" /><path
           style="font-variation-settings:normal;fill:url(#radialGradient17004);fill-opacity:1;fill-rule:evenodd;stroke-width:0.110569;stroke-linecap:butt;stroke-linejoin:miter;stroke-miterlimit:4;stroke-dasharray:none;stroke-dashoffset:0;stroke-opacity:1;stop-color:#000000"
           d="m 124.96218,65.697216 c 1.06806,0.865758 -0.90307,5.956658 -2.62379,4.619268 -1.20218,-0.934372 1.28513,-5.704397 2.62379,-4.619268 z"
           id="path17002" /><path
           style="font-variation-settings:normal;fill:url(#radialGradient17008);fill-opacity:1;fill-rule:evenodd;stroke-width:0.110569;stroke-linecap:butt;stroke-linejoin:miter;stroke-miterlimit:4;stroke-dasharray:none;stroke-dashoffset:0;stroke-opacity:1;stop-color:#000000"
           d="m 122.87865,59.368644 c 1.36322,0.178677 2.34823,5.548256 0.18203,5.30931 -1.51341,-0.166944 -1.89064,-5.533279 -0.18203,-5.30931 z"
           id="path17006" /><path
           style="font-variation-settings:normal;fill:url(#radialGradient17012);fill-opacity:1;fill-rule:evenodd;stroke-width:0.110569;stroke-linecap:butt;stroke-linejoin:miter;stroke-miterlimit:4;stroke-dasharray:none;stroke-dashoffset:0;stroke-opacity:1;stop-color:#000000"
           d="m 126.9261,55.245642 c 0.99905,0.944553 -1.3539,5.870628 -2.96782,4.406124 -1.12756,-1.023176 1.71565,-5.590011 2.96782,-4.406124 z"
           id="path17010" /><path
           style="font-variation-settings:normal;fill:url(#radialGradient17016);fill-opacity:1;fill-rule:evenodd;stroke-width:0.110569;stroke-linecap:butt;stroke-linejoin:miter;stroke-miterlimit:4;stroke-dasharray:none;stroke-dashoffset:0;stroke-opacity:1;stop-color:#000000"
           d="m 126.7886,51.333142 c 0.99905,0.944553 -1.3539,5.870628 -2.96782,4.406124 -1.12756,-1.023176 1.71565,-5.590011 2.96782,-4.406124 z"
           id="path17014" /><path
           style="font-variation-settings:normal;fill:url(#radialGradient17020);fill-opacity:1;fill-rule:evenodd;stroke-width:0.110569;stroke-linecap:butt;stroke-linejoin:miter;stroke-miterlimit:4;stroke-dasharray:none;stroke-dashoffset:0;stroke-opacity:1;stop-color:#000000"
           d="m 131.24591,48.006488 c 0.80216,1.116613 -2.83859,5.490459 -4.10187,3.826441 -0.92066,-1.212713 3.09648,-5.22598 4.10187,-3.826441 z"
           id="path17018" /><path
           style="font-variation-settings:normal;fill:url(#radialGradient12950);fill-opacity:1;fill-rule:evenodd;stroke-width:0.2;stroke-linecap:butt;stroke-linejoin:miter;stroke-miterlimit:4;stroke-dasharray:none;stroke-dashoffset:0;stroke-opacity:1;stop-color:#000000"
           d="m 120.15815,90.119052 c 2.12232,-0.59522 -1.22948,-6.483 -2.72475,-5.33722 -1.54213,1.181686 1.60974,5.649931 2.72475,5.33722 z"
           id="path12948" /><path
           style="font-variation-settings:normal;fill:url(#radialGradient11870);fill-opacity:1;fill-rule:evenodd;stroke-width:0.208248;stroke-linecap:butt;stroke-linejoin:miter;stroke-miterlimit:4;stroke-dasharray:none;stroke-dashoffset:0;stroke-opacity:1;stop-color:#000000"
           d="m 126.09855,90.103504 c -0.21996,-0.01052 -0.408,0.101834 -0.57106,0.293662 -0.0905,0.106623 -0.17915,0.216109 -0.25828,0.331896 -0.58865,0.860753 -0.84101,1.898747 -1.36053,2.796714 -0.0488,0.08445 -0.0537,0.198544 -0.0704,0.30017 -0.0547,0.336529 0.10719,0.577816 0.34126,0.770758 0.2349,0.193453 0.47362,0.09548 0.69714,-0.04144 0.36069,-0.21991 0.66653,-0.495277 0.84479,-0.905391 0.0661,-0.151324 0.1602,-0.294318 0.26234,-0.422599 0.42733,-0.537 0.62309,-1.20478 0.94851,-1.798986 0.0581,-0.106071 0.0539,-0.249148 0.0623,-0.296108 0.006,-0.43955 -0.27156,-0.818323 -0.66501,-0.975759 -0.0807,-0.03249 -0.15773,-0.04977 -0.23103,-0.05289 z"
           id="path1557" /><path
           style="font-variation-settings:normal;fill:url(#radialGradient11870-2);fill-opacity:1;fill-rule:evenodd;stroke-width:0.2;stroke-linecap:butt;stroke-linejoin:miter;stroke-miterlimit:4;stroke-dasharray:none;stroke-dashoffset:0;stroke-opacity:1;stop-color:#000000"
           d="m 125.21894,89.6587 c 2.22862,0.784768 3.57346,-4.879861 1.781,-5.372897 -2.15525,0.263558 -2.75185,4.741643 -1.781,5.372897 z"
           id="path1557-6" /></g><path
         id="path1537"
         style="font-variation-settings:normal;fill:#0c6424;fill-opacity:1;fill-rule:evenodd;stroke-width:0.2;stroke-linecap:butt;stroke-linejoin:miter;stroke-miterlimit:4;stroke-dasharray:none;stroke-dashoffset:0;stroke-opacity:1;stop-color:#000000"
         d="m 155.41484,68.810547 c -2.17379,0.04573 -4.36052,0.790976 -6.50273,2.030469 0.1323,-0.09981 0.29093,-0.202977 0.48594,-0.310157 l 0.19922,-0.184375 0.96406,-0.757031 c -5.11783,1.338499 -9.08633,4.917195 -11.89649,7.617188 -2.51459,2.866867 -4.78752,5.95729 -6.68086,9.285547 -1.20985,2.126397 -1.98627,4.102682 -2.97187,6.34375 -1.01653,2.311997 -3.17327,8.091582 -2.33086,8.332422 -0.0238,0.0891 -0.1124,0.18415 -0.0188,0.29375 0.0248,-0.0355 0.0511,-0.0619 0.0652,-0.0949 0.29516,-0.691 0.7048,-1.32682 1.16133,-1.940237 -0.46871,1.362737 -0.68683,2.374137 -0.61093,2.883597 0.51223,0.57811 3.62424,-3.41872 4.93085,-5.287894 2.38477,-3.411523 3.83458,-7.06373 5.37735,-10.332812 3.32688,-7.049539 7.8043,-14.877062 19.95976,-16.725782 -0.51946,-0.812908 -1.24583,-1.170873 -2.13125,-1.153515 z" /><path
         style="font-variation-settings:normal;fill:#0c6424;fill-opacity:1;fill-rule:evenodd;stroke-width:0.2;stroke-linecap:butt;stroke-linejoin:miter;stroke-miterlimit:4;stroke-dasharray:none;stroke-dashoffset:0;stroke-opacity:1;stop-color:#000000"
         d="m 99.901397,59.047363 c 4.124493,8.475822 6.726043,15.221207 7.760153,20.911273 0.66164,1.743469 1.26203,3.307515 1.80915,4.712546 5.24821,9.952178 8.79019,15.994378 9.31096,16.766648 1.5116,-1.04511 -0.65332,-7.339363 -4.09709,-16.524531 -3.24402,-11.257604 -8.24346,-24.03226 -14.783147,-25.865976 z"
         id="path1511" /><path
         id="path1471"
         style="font-variation-settings:normal;fill:#131313;fill-opacity:1;fill-rule:evenodd;stroke-width:0.2;stroke-linecap:butt;stroke-linejoin:miter;stroke-miterlimit:4;stroke-dasharray:none;stroke-dashoffset:0;stroke-opacity:1;stop-color:#000000"
         d="m 139.50117,44.219531 c -0.0184,0.07307 -0.0784,0.08718 -0.13633,0.100781 -1.01465,0.2384 -1.87919,0.795617 -2.72265,1.393751 -0.736,0.522126 -1.41245,1.114675 -1.92578,1.883203 -0.43814,0.655459 -0.66196,1.341891 -0.32383,2.13789 0.1632,0.38346 -0.001,0.681312 -0.39883,0.851172 -1.00293,0.42826 -1.77882,1.118309 -2.24336,2.148438 -0.40506,0.898119 -0.63155,1.850236 -0.74141,2.834765 -0.0368,0.32826 -0.028,0.606168 0.29649,0.798438 0.17495,0.10373 0.23085,0.317147 0.17695,0.529687 -0.0499,0.19621 -0.21834,0.20651 -0.37461,0.22461 -0.25306,0.02959 -0.44758,0.168333 -0.61211,0.358203 -0.64854,0.749589 -1.30075,1.492297 -1.74101,2.410156 -0.29387,0.612239 -0.37849,0.606421 -0.80781,0.08242 -0.0781,0.2192 -0.19219,0.399969 -0.34766,0.562109 -1.51093,1.573849 -2.0367,4.315563 -0.28203,6.263282 0.43146,0.479189 0.44712,0.865383 0.10312,1.414453 -0.18267,0.291199 -0.40686,0.551457 -0.55859,0.867187 -1.26453,2.629307 -2.37376,5.331132 -3.48789,8.03086 -0.0456,0.110129 -0.0442,0.276371 -0.18789,0.288671 -0.18034,0.0157 -0.22684,-0.167805 -0.27774,-0.296875 -0.20027,-0.508269 -0.30835,-1.046163 -0.44062,-1.576562 -0.0301,-0.1208 -0.004,-0.209394 0.0898,-0.296094 0.74875,-0.692799 0.84385,-1.549585 0.55,-2.489844 -0.15043,-0.481589 -0.19542,-0.969726 -0.17812,-1.472656 0.007,-0.20107 0.0714,-0.3104 0.24609,-0.4 1.6936,-0.869059 2.44538,-2.337369 2.47578,-4.254687 0.003,-0.20933 0.0271,-0.422721 -0.0641,-0.625391 -0.168,-0.3744 -0.2986,-0.761205 -0.325,-1.177734 -0.0157,-0.2493 -0.11621,-0.182328 -0.24688,-0.08633 -0.23413,0.172799 -0.47285,0.33932 -0.71445,0.50039 -0.2061,0.13706 -0.34025,6.98e-4 -0.45039,-0.157422 -0.10636,-0.152 -0.15737,-0.314342 0.0227,-0.457812 0.43707,-0.34826 0.56139,-0.8474 0.61289,-1.380469 0.0837,-0.867459 -0.0488,-1.708235 -0.31524,-2.546094 0.65814,-0.08 1.162,-0.418836 1.5836,-0.903906 0.65493,-0.753059 1.20561,-1.581375 1.59414,-2.515234 0.23757,-0.57013 0.35997,-1.166302 0.16797,-1.782032 -0.0696,-0.223199 -0.17921,-0.432828 -0.27071,-0.648828 -0.10187,-0.24107 0.0834,-0.469699 0.0543,-0.717968 -0.2576,0.02533 -0.46249,0.194446 -0.79102,0.148046 0.45306,-0.395469 0.70343,-0.854718 0.79493,-1.392578 0.0381,-0.2248 0.15596,-0.297053 0.34609,-0.351953 0.68506,-0.19814 1.3297,-0.498695 1.91797,-0.915234 1.62266,-1.148789 2.26753,-2.892502 2.6707,-4.779688 0.004,-0.016 -0.0204,-0.03886 -0.0508,-0.09219 -0.42827,0.330932 -0.9342,0.416033 -1.44727,0.470703 -0.72639,0.0776 -1.35838,0.369835 -1.90585,0.873828 -0.44133,0.406667 -0.84121,0.852513 -1.18868,1.345313 -0.29386,0.416799 -0.56307,0.852692 -0.84492,1.282812 -0.15806,-0.11866 -0.094,-0.357446 -0.25586,-0.478516 -0.18347,0.34106 -0.3608,0.65331 -0.76133,0.74961 -0.75546,0.18213 -1.30507,0.654602 -1.66054,1.369531 -0.4056,0.815729 -0.60672,1.69805 -0.79766,2.587109 -0.0901,0.41999 -0.0183,0.744337 0.28086,1.041407 0.1624,0.161329 0.28039,0.370695 0.41719,0.559765 0.15049,0.208 0.17021,0.413013 0.048,0.657813 -0.18694,0.375199 -0.3385,0.769618 -0.50704,1.154687 -0.2504,0.57066 -0.26334,0.589136 -0.77187,0.241407 -0.26747,-0.18267 -0.40376,-0.111305 -0.5875,0.115625 -1.06826,1.320258 -1.30216,2.787527 -0.75469,4.403515 0.3349,0.988259 0.89569,1.839766 1.49649,2.665625 0.12575,0.1736 0.1573,0.302181 0.006,0.481641 -0.59493,0.704529 -0.95126,1.548463 -1.26484,2.414062 -0.19094,0.52719 -0.19372,0.533366 -0.61719,0.159766 -0.17013,-0.15013 -0.27648,-0.18653 -0.41406,0.05 -0.34454,0.591729 -0.61323,1.209584 -0.72656,1.895703 -0.15467,0.937059 0.0235,1.857641 0.0918,2.7875 0.0773,1.051469 0.62173,1.628276 1.5332,1.916016 0.1768,0.0563 0.28965,0.146059 0.34805,0.330859 0.26667,0.841329 0.65527,1.630271 0.98593,2.444141 0.079,0.194129 0.0906,0.367949 0.041,0.574609 -0.6008,2.502667 -1.12108,5.022143 -1.36719,7.594141 -0.0776,0.810129 -0.13358,1.622586 -0.20078,2.453515 -0.15417,-0.0845 -0.17637,-0.229452 -0.23047,-0.344922 -0.37705,-0.805599 -0.72976,-1.624471 -1.12656,-2.41914 -0.19787,-0.396 -0.32782,-0.723984 0.10898,-1.039453 0.1176,-0.0851 0.18191,-0.259163 0.25391,-0.401563 0.46638,-0.924529 0.58398,-1.917054 0.48398,-2.939453 -0.14773,-1.507138 -0.83581,-2.732612 -1.86992,-3.769141 -0.216,-0.216269 -0.45366,-0.428674 -0.55156,-0.727343 -0.0907,-0.27735 -0.19044,-0.264785 -0.35977,-0.09063 -0.12053,0.12419 -0.23385,0.210234 -0.26875,-0.06602 -0.0973,-0.772529 -0.42918,-1.447073 -0.82812,-2.088672 -0.1216,-0.19547 -0.11472,-0.319429 0.0227,-0.518359 1.08132,-1.568799 1.44209,-3.286539 0.91757,-5.166797 -0.0875,-0.31226 -0.21134,-0.617478 -0.42734,-0.855078 -0.3392,-0.3728 -0.64516,-0.756289 -0.67266,-1.305078 -0.21413,0.07279 -0.26327,0.289937 -0.46914,0.385937 -0.0427,-2.273578 -1.20633,-3.890269 -2.74179,-5.311328 -0.15097,0.16667 -0.0466,0.356797 -0.18047,0.516797 -0.22987,-0.36666 -0.47253,-0.7021 -0.74453,-1.0125 -0.9216,-1.051189 -2.02006,-1.736794 -3.42032,-1.833594 -0.33573,-0.0232 -0.46823,0.04227 -0.45273,0.428125 0.0219,0.55066 0.12638,1.065038 0.41758,1.523438 0.7696,1.211728 1.7581,2.167863 3.05703,2.739062 0.20952,0.09226 0.27951,0.20097 0.27851,0.4375 -0.005,0.872529 0.1727,1.708461 0.5711,2.48125 0.4384,0.850669 1.01096,1.603013 1.63789,2.307813 0.17475,0.195989 0.20435,0.353974 0.11445,0.590234 -0.3056,0.805599 -0.46541,1.646566 -0.52031,2.509766 -0.0165,0.262129 -0.0665,0.552454 0.10547,0.758593 0.29633,0.35573 0.18364,0.691458 0.0637,1.067188 -0.7624,2.386337 -0.0672,4.596809 1.87969,5.879687 0.34533,0.22773 0.51823,0.455354 0.57773,0.876954 0.11864,0.843999 0.37664,1.65806 0.65664,2.530859 -0.23467,-0.0752 -0.41567,-0.125897 -0.5914,-0.191797 -0.19315,-0.0723 -0.24975,-0.0361 -0.22305,0.194531 0.0882,0.770669 0.0808,1.537414 -0.0891,2.301953 -0.0866,0.39066 -0.0754,0.797958 0.0684,1.179297 0.32293,0.857859 0.79208,1.622504 1.44726,2.245703 0.40026,0.3808 0.84403,0.673438 1.43203,0.685938 0.41866,0.009 0.81577,0.177803 1.18164,0.408203 0.24293,0.1528 0.37967,0.345981 0.39727,0.656641 0.0344,0.598079 0.0355,1.195369 0.0254,1.792968 -0.0336,2.034398 0.0905,4.059877 0.36758,6.071875 0.32613,2.367457 0.62932,4.737107 0.73359,7.128517 0.0143,0.32719 -0.0428,0.65818 0.002,1.05781 0.004,0.0332 2.4e-4,0.0684 -0.0173,0.0871 -0.50213,-0.53254 -0.94966,-1.27157 -1.25313,-1.87344 -0.78853,-1.56453 -1.23833,-3.23273 -1.4082,-4.98633 -0.1808,-1.86879 -0.26315,-3.750958 -0.94688,-5.532026 -0.72774,-1.895458 -1.36977,-3.827553 -2.1207,-5.712891 -0.94023,-2.358927 -1.87226,-4.717057 -2.54453,-7.178125 -0.45467,-1.663678 -0.8595,-3.347028 -1.4043,-4.979296 -0.83627,-2.505328 -1.94441,-4.900822 -2.92148,-7.34961 -0.5968,-1.495998 -1.24449,-2.974724 -2.11836,-4.320312 -1.46106,-2.249328 -3.18373,-4.27586 -5.13945,-6.067578 -1.63999,-1.502929 -3.52144,-2.613955 -5.607036,-3.333594 -0.138449,-0.0477 -0.307388,-0.05834 -0.486328,-0.03594 0.899998,0.917319 1.646079,1.950273 2.385547,2.988672 2.402617,3.372777 4.375427,6.984827 5.657817,10.983203 0.89759,2.798917 1.7167,5.624069 2.5375,8.447266 0.99119,3.409546 2.19343,6.712454 3.97343,9.775391 1.18827,2.044747 2.28321,4.145025 3.53946,6.151953 1.19094,1.902668 1.94971,4.045228 2.76757,6.145697 0.50213,1.2888 1.01211,2.55107 1.85157,3.6836 1.00079,1.34987 2.02361,2.68463 3.00547,4.04922 1.09884,1.52716 1.67781,3.49094 1.73593,5.00742 0.007,0.22987 -0.005,0.46805 0.16172,0.61523 0.25052,0.22067 0.69286,0.0994 0.93477,0 0.31036,-0.12753 0.63217,-0.19593 0.92969,-0.3582 0.56887,-0.31026 0.6187,-0.70084 0.11992,-1.1125 -0.17748,-0.14648 -0.37408,-0.26731 -0.50235,-0.47344 -0.5714,-0.92 -0.8056,-1.911 -0.5664,-2.99179 0.27972,-1.26474 0.85173,-2.39983 1.46133,-3.51875 0.80185,-1.47114 1.85654,-2.74596 2.86054,-4.06329 2.79888,-3.674598 5.11027,-7.673798 7.17422,-11.830854 0.8784,-1.769008 1.56665,-3.632766 2.47305,-5.390625 1.69519,-3.287196 3.75513,-6.262883 6.49804,-8.713281 4.02635,-3.597316 8.68064,-5.305908 13.97071,-5.192578 0.3648,0.0077 0.72969,0.0419 1.20859,0.0707 -0.20264,-0.16133 -0.31559,-0.262747 -0.43906,-0.348047 -0.9184,-0.634139 -1.92439,-1.055793 -2.99453,-1.314453 -2.6304,-0.635999 -5.19051,-0.281539 -7.70117,0.63125 -3.34745,1.216789 -6.25032,3.241062 -8.99297,5.5125 -1.63147,1.350929 -2.93987,3.066624 -4.39688,4.614063 -1.56934,1.666098 -2.64875,3.713328 -3.91328,5.616797 -1.13515,1.709058 -2.10906,3.502204 -2.84453,5.432812 -0.5384,1.411729 -1.03555,2.841036 -1.60195,4.240234 -0.97706,2.414668 -1.62024,4.916386 -1.97891,7.506252 -0.18587,1.3416 -0.34817,2.69496 -0.87617,3.95469 -0.0976,0.2328 -0.0959,0.64972 -0.41485,0.61562 -0.30345,-0.0323 -0.31075,-0.4288 -0.37265,-0.7 -0.34534,-1.51706 -0.57104,-3.05253 -0.70703,-4.60586 -0.1432,-1.6376 -0.26129,-3.276778 -0.36289,-4.917577 -0.0109,-0.179999 -0.0343,-0.368747 0.21367,-0.385546 0.32987,-0.0224 0.55436,-0.233216 0.74609,-0.471875 0.23947,-0.29894 0.53502,-0.49676 0.88008,-0.61836 0.5448,-0.19174 0.94524,-0.573297 1.29297,-1.029297 0.83627,-1.097069 1.23904,-2.37458 1.43398,-3.736718 0.0589,-0.4104 0.12836,-0.823755 0.0895,-1.321094 -0.3456,0.305609 -0.68185,0.307609 -1.10313,0.212109 0.39888,-0.284 0.66825,-0.593243 0.86211,-0.970312 0.49414,-0.960799 0.73764,-1.992518 0.81523,-3.073047 0.0101,-0.13947 -0.0382,-0.31761 0.19063,-0.32461 0.84959,-0.0248 1.36319,-0.568207 1.71172,-1.285546 0.50214,-1.035729 0.69631,-2.166428 0.80937,-3.310157 0.0248,-0.250129 0.0736,-0.433844 0.33946,-0.489843 1.3616,-0.2864 2.31903,-1.135245 2.98437,-2.364844 0.63515,-1.174129 0.84375,-2.45633 0.86485,-3.836328 -0.30027,0.221059 -0.55488,0.404973 -0.84688,0.514843 -0.14053,0.053 -0.31221,0.180128 -0.43008,0.02383 -0.1016,-0.1352 0.0347,-0.283768 0.11758,-0.398438 0.17253,-0.23813 0.35306,-0.471369 0.54453,-0.692969 0.42373,-0.490929 0.87465,-0.956778 1.21758,-1.517578 0.52746,-0.861859 0.65076,-1.777396 0.35156,-2.753125 -0.0509,-0.16611 -0.0966,-0.277652 -0.28593,-0.120312 -0.25973,0.215989 -0.59347,0.255329 -0.9004,0.355859 -0.2304,0.07547 -0.45215,0.161106 -0.62148,0.353906 -0.2744,0.31253 -0.56317,0.611911 -0.8293,0.931641 -0.65333,0.786129 -1.24748,1.61368 -1.53281,2.630469 -0.19893,0.707989 -0.13951,1.362629 0.44609,1.867968 0.1544,0.13333 0.10527,0.206649 -0.018,0.311719 -0.9904,0.843999 -1.58867,1.941422 -1.92227,3.212891 -0.0421,0.16026 -0.0276,0.428719 -0.18359,0.449219 -0.19134,0.0249 -0.20695,-0.225923 -0.28985,-0.376563 0.006,-0.003 0.0108,-0.0062 0.0168,-0.0082 -0.0672,-0.0435 -0.0436,-0.03622 -0.0324,-0.01992 0.006,0.0079 0.0102,0.01913 0.0152,0.02813 -2.16661,0.982149 -2.48645,3.074562 -2.88828,5.11875 -0.21759,-0.13253 -0.2099,-0.402347 -0.40937,-0.498047 -0.43893,1.023199 -0.43874,1.024177 -1.28594,1.672656 -0.12134,0.0931 -0.18838,0.223413 -0.25078,0.357813 -0.49387,1.060529 -0.74367,2.179376 -0.71407,3.359375 0.0141,0.557869 0.11155,1.117398 0.47422,1.536328 0.25153,0.29013 0.16953,0.462192 0.003,0.719531 -0.5832,0.899999 -1.12258,1.828511 -1.45938,2.86211 -0.16906,0.518669 -0.3198,1.048464 0.0797,1.558593 0.14213,0.18134 0.0285,0.38342 -0.13633,0.51836 -0.168,0.13754 -0.31403,0.05933 -0.44336,-0.07617 -0.15867,-0.16667 -0.22278,-0.376353 -0.26328,-0.601953 -0.25012,-1.395469 -0.21565,-2.798925 -0.14765,-4.208203 0.0976,-2.028258 0.23208,-4.052064 0.45742,-6.069922 0.0331,-0.29627 0.0508,-0.535391 0.44414,-0.562891 0.42773,-0.0293 0.75311,-0.317667 0.97578,-0.691797 0.1488,-0.2496 0.33407,-0.395669 0.6082,-0.467968 0.43787,-0.1144 0.82138,-0.357761 1.13711,-0.687891 0.81142,-0.848269 1.3966,-1.831241 1.575,-3.037109 0.0674,-0.4552 0.12147,-0.9125 0.18867,-1.367969 0.0389,-0.26319 0.072,-0.497958 -0.31171,-0.329688 -0.0712,0.0309 -0.18345,0.03787 -0.21915,-0.06133 -0.0403,-0.1104 0.08,-0.1387 0.13868,-0.1875 0.25307,-0.2112 0.49897,-0.429033 0.69257,-0.701562 0.5392,-0.7584 0.90977,-1.608677 1.20977,-2.491016 0.0755,-0.22133 0.1838,-0.355803 0.38594,-0.445703 0.37546,-0.16693 0.72638,-0.379432 1.03945,-0.657031 1.03787,-0.918659 1.44612,-2.163937 1.68906,-3.497266 0.0325,-0.17649 -0.0246,-0.223997 -0.18515,-0.204297 -0.0723,0.0088 -0.16241,0.03715 -0.23711,-0.07031 0.52346,-0.48294 0.90511,-1.070542 1.14804,-1.738282 0.1264,-0.346389 0.29758,-0.403493 0.61758,-0.333593 1.16901,0.254399 2.3089,0.173631 3.40196,-0.373828 0.2576,-0.12906 0.53434,-0.218582 0.80234,-0.325782 0.89654,-0.358129 1.5007,-1.041611 1.9543,-1.89414 0.056,-0.10533 0.11504,-0.211932 -0.0543,-0.257032 -0.63706,-0.169059 -1.27252,-0.394971 -1.93945,-0.313671 -0.9416,0.115189 -1.86776,0.330459 -2.75469,0.680859 -0.7736,0.3056 -1.56423,0.610633 -1.79063,1.601562 -0.0413,0.1816 -0.21279,0.321672 -0.41172,0.301172 -0.18773,-0.0192 -0.26855,-0.196584 -0.32265,-0.364843 -0.0781,-0.24347 -0.0899,-0.502171 -0.10586,-0.7875 -0.17307,0.106929 -0.2958,0.210943 -0.43633,0.264843 -1.53302,0.58747 -2.37974,1.81391 -2.89414,3.348828 -0.10219,0.30453 -0.25958,0.638849 -0.13398,0.942578 0.20751,0.50133 0.0802,0.950938 -0.0734,1.410938 -0.14133,0.42244 -0.17733,0.426662 -0.4832,0.08906 -0.0747,0.20213 -0.2133,0.327088 -0.39063,0.417188 -2.00502,1.019719 -2.9403,3.291292 -2.25391,5.493359 0.0528,0.17014 0.0463,0.265363 -0.0918,0.376563 -1.0064,0.808529 -1.44361,1.951854 -1.71641,3.189453 -0.14233,0.646659 -0.099,1.315774 -0.21953,1.964844 -0.0429,0.23146 -0.13203,0.43384 -0.41602,0.41914 -0.26933,-0.0139 -0.36892,-0.209323 -0.41562,-0.439453 -0.0625,-0.307999 -0.0329,-0.620618 0.009,-0.929687 0.2512,-1.841798 0.65315,-3.64848 1.24141,-5.404688 1.51386,-4.519455 3.84173,-8.588626 6.42812,-12.513672 0.0864,-0.131509 0.16231,-0.186115 0.32071,-0.128515 0.84427,0.306669 1.71164,0.335245 2.58945,0.209375 0.89386,-0.12826 1.77068,-0.325666 2.58242,-0.753125 0.62106,-0.3272 1.09198,-0.798146 1.28985,-1.521875 0.0533,-0.19472 0.0246,-0.270828 -0.18399,-0.273828 -0.1976,-0.0029 -0.40886,-2.41e-4 -0.59414,-0.206641 0.83328,-0.48719 1.44925,-1.183475 1.91485,-2.027734 0.0885,-0.16003 0.17308,-0.06638 0.25898,-7.82e-4 0.50454,0.38533 1.08029,0.504744 1.69336,0.514844 1.02212,0.0168 2.03136,-0.136419 3.04336,-0.243359 0.90373,-0.09547 1.62566,-0.557563 2.18086,-1.301563 0.065,-0.08773 0.19544,-0.173937 7.8e-4,-0.285937 -0.94187,-0.54133 -1.90445,-0.98446 -3.01992,-0.94336 -1.15813,0.04267 -2.28645,0.225073 -3.37813,0.638672 -0.448,0.1696 -0.54844,0.101097 -0.63164,-0.395703 -0.012,-0.07147 0.0117,-0.151441 -0.0563,-0.21914 -0.37067,0.170399 -0.76739,0.259937 -1.17031,0.323437 -1.1536,0.18267 -1.96627,0.854179 -2.51719,1.898438 -0.30613,0.579989 -0.53467,1.196034 -0.75547,1.815234 -0.0504,0.1408 -0.093,0.284594 -0.26445,0.321094 -0.61813,0.132259 -1.23574,0.267633 -1.93867,0.420703 0.136,-0.20933 0.22831,-0.362362 0.33125,-0.507422 0.4976,-0.702929 1.05399,-1.354392 1.61719,-2.000781 2.11866,-2.429058 4.69489,-3.950696 7.86523,-4.265625 1.7584,-0.1744 3.46577,0.07729 5.08867,0.835156 0.24025,0.11226 0.48628,0.236206 0.61055,0.497266 0.46,0.969329 1.23786,1.553044 2.15625,1.989843 1.17067,0.55706 2.35477,1.057447 3.6625,1.123047 0.48109,0.024 0.48109,0.01707 0.54219,-0.489062 0.0152,-0.1248 0.0253,-0.269041 0.15039,-0.319141 0.1512,-0.06053 0.20179,0.105006 0.27109,0.191406 0.44586,0.5568 0.92384,1.076399 1.49023,1.505469 1.17733,0.891719 2.3994,1.643069 3.93594,1.592969 0.17918,-0.0059 0.28982,-0.03223 0.34734,-0.07328 0.002,-0.07764 -0.0125,-0.194466 -0.0403,-0.330231 -0.2384,-1.169859 -0.72664,-2.179231 -1.64531,-2.93789 -0.59253,-0.48934 -1.1997,-0.959503 -1.89297,-1.276563 -0.88027,-0.40195 -1.78251,-0.306623 -2.66758,0.0043 -0.24986,0.08773 -0.42749,0.05159 -0.61523,-0.127344 -0.24693,-0.2352 -0.50592,-0.457326 -0.76992,-0.672266 -1.40347,-1.141328 -2.94251,-1.757078 -4.75078,-1.299218 -0.10213,0.0259 -0.18931,-0.0027 -0.27891,-0.03633 -1.67011,-0.62772 -3.40474,-0.787482 -5.16367,-0.775782 -0.31574,0.0024 -0.63174,3.91e-4 -0.97305,3.91e-4 0.0661,-0.156 0.19465,-0.202941 0.29492,-0.281641 0.48213,-0.378119 1.04927,-0.439478 1.625,-0.505078 1.85864,-0.21094 3.45233,-0.948032 4.49844,-2.63789 0.25333,-0.40829 0.51611,-0.454591 0.91797,-0.375391 1.8112,0.35707 3.52834,0.116554 5.10273,-0.934375 0.11547,-0.07739 0.18206,-0.06655 0.27696,0.02305 0.5928,0.559189 1.29892,0.935361 2.01172,1.287891 0.56294,0.278129 1.12161,0.525193 1.37734,1.189453 0.0629,0.163469 0.21861,0.294097 0.34687,0.423437 0.72,0.727189 1.58499,1.202104 2.53672,1.495703 0.31062,0.096 0.38712,0.23895 0.34922,0.54961 -0.112,0.918929 0.1062,1.746515 0.76992,2.384375 1.03894,0.998669 2.32503,1.441809 3.69063,1.680468 0.0294,-0.353279 -0.0489,-0.729918 -0.0785,-1.051953 -0.10477,-1.138536 -0.58352,-2.061159 -1.31445,-2.874218 -0.0408,-0.0451 -0.0872,-0.08491 -0.1293,-0.128907 -0.007,-0.0077 -0.007,-0.02329 -0.0273,-0.09609 0.352,-0.0299 0.6962,-0.05907 1.0418,-0.08867 -1.27547,-2.774918 -3.49187,-3.897641 -6.30274,-3.994141 -0.22667,-0.0077 -0.46101,-0.01247 -0.68047,0.03633 -1.45306,0.32266 -2.43873,-0.631485 -3.50273,-1.371484 -0.0863,-0.06 -0.16971,-0.156897 -0.0953,-0.285156 0.0619,-0.107 0.16309,-0.06667 0.25859,-0.06367 1.63307,0.05546 3.22275,-0.18007 4.75234,-0.791797 0.30266,-0.121067 0.56684,-0.313902 0.80977,-0.542969 0.24141,-0.227461 0.25542,-0.408494 -0.0227,-0.618359 -0.31494,-0.237867 -0.65458,-0.418619 -1.02578,-0.524219 -1.57251,-0.446927 -3.11188,-0.254928 -4.61875,0.310937 -0.53653,0.2016 -0.92643,0.57829 -0.94453,1.232422 -0.006,0.234129 -0.14832,0.17388 -0.27578,0.14961 -1.3064,-0.250667 -2.57499,-0.08726 -3.81445,0.380468 -0.3848,0.14507 -0.74416,0.344684 -1.0543,0.627344 -0.0952,0.08696 -0.18236,0.153856 -0.31836,0.110156 -1.032,-0.331729 -1.96839,-0.03331 -2.84492,0.516016 -1.10534,0.691739 -2.11901,1.499341 -2.82461,2.655859 -0.1224,0.20054 -0.25474,0.408077 -0.28164,0.641407 -0.0493,0.428529 -0.28988,0.675462 -0.62188,0.889062 -0.4584,0.29466 -0.90477,0.60893 -1.38984,0.85586 -0.11706,0.0597 -0.24208,0.110596 -0.36875,0.141796 -0.14053,0.03493 -0.30306,0.05336 -0.38516,-0.10664 -0.0795,-0.15467 0.0541,-0.255691 0.14102,-0.350391 0.52907,-0.577329 1.05806,-1.154659 1.43086,-1.861328 0.32667,-0.619459 0.51923,-1.262854 0.25976,-1.964453 -0.0581,-0.15654 -0.0173,-0.21396 0.1254,-0.268359 1.18266,-0.45227 2.0161,-1.358112 2.77343,-2.351172 0.14104,-0.1848 0.24421,-0.2454 0.46875,-0.175 0.85968,0.26854 1.72922,0.208685 2.59375,0.01563 1.04609,-0.233867 2.05176,-0.598985 3.01016,-1.092578 0.6352,-0.326933 1.18752,-0.752422 1.41445,-1.504688 0.0667,-0.221327 0.12097,-0.358306 -0.21289,-0.403906 -0.33494,-0.04613 -0.6516,-0.235537 -0.97773,-0.358203 -0.22827,-0.08583 -0.46531,-0.123332 -0.70664,-0.09453 -1.41467,0.169333 -2.7772,0.529451 -4.05235,1.20625 -0.0928,0.04934 -0.19321,0.173087 -0.28711,0.110157 -0.1107,-0.07413 -0.0329,-0.22695 -0.0289,-0.34375 0.0115,-0.300267 0.0142,-0.599382 -0.0789,-0.88711 -0.0453,-0.139201 -0.0883,-0.30264 -0.28242,-0.10664 -0.15627,0.158137 -0.37684,0.253387 -0.5875,0.254687 -0.44134,0.0027 -0.76439,0.25222 -1.10039,0.485547 -0.99039,0.688266 -1.91263,1.456283 -2.64141,2.449609 -0.1968,0.268261 -0.36521,0.553901 -0.48281,0.870704 -0.131,0.351999 -0.14042,0.696437 -0.008,1.054296 0.19414,0.5248 0.10083,0.687335 -0.4125,0.765235 -0.20827,0.03147 -0.40364,0.114102 -0.5543,0.251172 -1.21227,1.103459 -2.2044,2.388663 -2.82227,3.944921 -0.2459,0.61973 -0.22178,1.295545 -0.0754,1.952344 0.0352,0.15652 0.053,0.270486 -0.0918,0.391016 -1.97812,1.645058 -3.63022,3.594256 -5.10782,5.733984 -0.90932,1.316779 -1.83705,2.610876 -2.55625,4.052735 -0.0629,0.126129 -0.12626,0.260325 -0.28359,0.240625 -0.22587,-0.028 -0.34583,-0.205611 -0.44023,-0.4 -0.0741,-0.15307 0.001,-0.258835 0.11289,-0.352735 0.2328,-0.19493 0.47544,-0.377634 0.67304,-0.615234 0.51626,-0.62026 0.68758,-1.358447 0.65079,-2.153906 -0.0123,-0.26453 0.0463,-0.365247 0.31054,-0.410547 0.50294,-0.08613 0.86446,-0.426984 1.11992,-0.864844 0.5352,-0.916259 1.1294,-1.789275 1.73047,-2.658594 0.38206,-0.553069 0.5461,-1.186626 0.40157,-1.841015 -0.1128,-0.51093 0.0906,-0.773456 0.45507,-1.005469 0.0678,-0.04319 0.17476,-0.05852 0.18828,-0.158984 0.005,-0.0349 -0.0304,-0.04123 -0.0477,-0.04375 -0.17288,-0.02509 -0.43956,0.03623 -0.48946,-0.120313 -0.0581,-0.18266 0.21068,-0.260544 0.33868,-0.377344 0.98854,-0.904259 1.72451,-1.964039 1.94531,-3.348828 0.0963,-0.603189 0.0404,-1.186604 -0.18281,-1.758594 -0.18213,-0.466929 -0.0108,-0.913535 0.45351,-1.046875 2.76447,-0.794389 4.00729,-2.988257 4.81289,-5.595703 h -0.57539 z m 9.54571,0.957422 c 0.18905,0.02427 0.38133,0.03471 0.56718,0.07578 0.30052,0.06613 0.58866,0.174674 0.66016,0.538672 0.0595,0.302394 -0.16119,0.649064 -0.51133,0.816797 -0.47812,0.229327 -0.97643,0.407146 -1.48203,0.557813 -0.84853,0.253331 -1.68841,0.559602 -2.58359,0.588672 -0.31306,0.01013 -0.63418,-0.0046 -0.83125,-0.323047 -0.28,-0.453333 -0.13352,-0.893549 0.40195,-1.141016 0.88613,-0.409327 1.79727,-0.748125 2.74765,-0.961719 0.3392,-0.076 0.679,-0.150353 1.03126,-0.151952 z m -11.06485,0.294922 c 0.45999,-0.0019 0.60741,0.141927 0.60664,0.614453 0.001,0.377599 -0.1239,0.711692 -0.35937,0.990625 -0.6168,0.729325 -1.26807,1.421552 -2.04727,1.96875 -0.21947,0.15386 -0.44944,0.285178 -0.70703,0.355078 -0.51707,0.14026 -0.78853,-0.105785 -0.73203,-0.659375 0.0288,-0.280538 0.14775,-0.523873 0.29922,-0.75 0.53733,-0.801865 1.19859,-1.482416 1.93086,-2.088281 0.29147,-0.241327 0.61405,-0.42995 1.00898,-0.43125 z m 5.79922,0.01133 c 0.1902,0.0024 0.38433,0.06607 0.57578,0.211328 0.20778,0.157861 0.29269,0.357494 0.23399,0.615625 -0.0661,0.291461 -0.1551,0.571017 -0.33243,0.81875 -0.70694,0.988525 -1.58113,1.798455 -2.50273,2.558985 -0.144,0.11893 -0.31084,0.178953 -0.48711,0.226953 -0.636,0.1728 -0.99555,-0.121674 -0.98555,-0.813672 8e-4,-0.19093 0.0523,-0.364534 0.14063,-0.533594 0.63067,-1.203994 1.5885,-2.082222 2.65703,-2.835547 0.19374,-0.1368 0.40321,-0.229395 0.61914,-0.246093 0.027,-0.0021 0.0541,-0.0031 0.0813,-0.0027 z m 13.32813,1.298828 c 0.047,-1.96e-4 0.0941,-2.59e-4 0.14101,3.91e-4 0.37567,0.0052 0.75014,0.03923 1.12188,0.126562 0.24187,0.05653 0.53592,0.09994 0.58632,0.408204 0.0507,0.310398 -0.14333,0.543985 -0.37773,0.711718 -0.45734,0.327461 -1.0023,0.389593 -1.52656,0.5 -0.504,0.10588 -1.01804,0.146182 -1.53242,0.163282 -0.3712,0.0045 -0.74186,0.0088 -1.10586,-0.08164 -0.29334,-0.0728 -0.55546,-0.196395 -0.59336,-0.555859 -0.0373,-0.354934 0.14257,-0.59913 0.43164,-0.747657 0.58746,-0.301065 1.22356,-0.431976 1.86836,-0.478906 0.3283,-0.02404 0.65779,-0.04472 0.98672,-0.04609 z m -26.52501,1.148438 c 0.0902,-3e-5 0.18243,0.0072 0.27618,0.02266 0.23873,0.03947 0.37763,0.150265 0.33203,0.428125 -0.10826,0.675469 -0.34161,1.298991 -0.82774,1.780859 -0.6672,0.66159 -1.35109,1.304207 -2.15507,1.791407 -0.3088,0.187478 -0.59289,0.174987 -0.86329,-0.05781 -0.25948,-0.22346 -0.34621,-0.579876 -0.16328,-0.916406 0.5808,-1.070398 1.23899,-2.076669 2.30352,-2.705469 0.3204,-0.189395 0.65168,-0.321637 1.0082,-0.341015 0.0297,-0.0016 0.0594,-0.0023 0.0894,-0.0023 z m 20.74922,0.604687 c 0.54549,-0.0021 1.08463,0.06792 1.60704,0.278907 0.19331,0.07787 0.37053,0.179379 0.46093,0.387109 0.12344,0.2832 -0.0101,0.539751 -0.35703,0.688281 -1.0429,0.44613 -2.13356,0.626413 -3.34101,0.626953 -0.2712,-0.0184 -0.63324,0.05146 -0.98204,-0.07148 -0.54,-0.19013 -0.63083,-0.607052 -0.20976,-1.00625 0.64266,-0.60906 1.43807,-0.814778 2.27461,-0.880078 0.1828,-0.0144 0.36542,-0.02275 0.54726,-0.02344 z m -4.26953,1.073047 c 0.69725,0.0048 0.88936,0.295011 0.71016,0.930469 -0.14693,0.520268 -0.47575,0.879911 -0.87735,1.187109 -0.80292,0.61386 -1.67723,1.097245 -2.58945,1.508985 -0.2208,0.09969 -0.45753,0.147393 -0.69726,0.158593 -0.57413,0.02747 -0.86556,-0.398548 -0.65704,-0.955078 0.0299,-0.08027 0.0647,-0.165653 0.11993,-0.226953 0.9544,-1.059728 1.96946,-2.033802 3.34648,-2.47539 0.1368,-0.04404 0.27666,-0.07864 0.41719,-0.106641 0.0931,-0.0191 0.19004,-0.01809 0.22734,-0.02109 z m -7.4,1.5125 c 0.36919,-0.0075 0.56905,0.307681 0.56407,1.005469 -0.006,0.24854 -0.17805,0.644919 -0.39805,1.017187 -0.4728,0.79946 -1.07132,1.489851 -1.74492,2.111719 -0.0267,0.0248 -0.0531,0.05072 -0.0832,0.06992 -0.26667,0.16904 -0.53692,0.366269 -0.85586,0.144141 -0.25813,-0.18 -0.3255,-0.602796 -0.18203,-0.983594 0.40451,-1.074928 0.94366,-2.061431 1.74766,-2.874219 0.15627,-0.1576 0.32865,-0.288025 0.52812,-0.378125 0.15933,-0.072 0.30114,-0.1105 0.42422,-0.1125 z m 18.73867,0.03008 c 0.006,10e-7 0.0121,1.41e-4 0.0184,3.91e-4 1.48823,0.05867 2.89709,0.370854 4.09336,1.370312 0.4264,0.356 0.7427,0.803892 1.01524,1.29375 0.15866,0.28533 0.0605,0.404879 -0.2086,0.467579 -0.224,0.0519 -0.45021,0.06174 -0.68007,0.06094 -1.33894,-0.09547 -2.59062,-0.470028 -3.68555,-1.304688 -0.5152,-0.392798 -0.87011,-0.892641 -0.79141,-1.612109 0.0173,-0.157577 0.0538,-0.276187 0.23867,-0.276172 z m -24.52382,0.13711 c 0.0548,6.4e-5 0.11517,0.01347 0.18281,0.04453 0.33627,0.15414 0.65756,0.318159 0.71406,0.754687 0.0261,0.20187 -0.001,0.398646 -0.0781,0.584766 -0.31067,0.754138 -0.61639,1.511684 -1.05079,2.202344 -0.19038,0.302928 -0.39927,0.589747 -0.68007,0.810547 -0.20853,0.164508 -0.43896,0.256915 -0.7043,0.191015 -0.2624,-0.06507 -0.43531,-0.208172 -0.39961,-0.53164 0.25866,-1.361858 0.62806,-2.677633 1.56406,-3.737891 0.12579,-0.1424 0.24626,-0.304978 0.42891,-0.317578 0.008,-5.25e-4 0.0152,-7.91e-4 0.023,-7.81e-4 z m -7.72461,0.05156 c 0.0748,-8.91e-4 0.15339,0.01187 0.23632,0.0418 0.24134,0.08693 0.39459,0.517782 0.37969,1.076172 -0.0192,0.10427 -0.0254,0.311676 -0.0961,0.491406 -0.3144,0.798128 -0.71986,1.542032 -1.3332,2.1375 -0.31546,0.30613 -0.69535,0.367492 -0.98282,0.182422 -0.33306,-0.21413 -0.33085,-0.552291 -0.26015,-0.893359 0.1936,-0.933058 0.50652,-1.809693 1.16172,-2.512891 0.0579,-0.06213 0.12227,-0.118203 0.18867,-0.170703 0.2086,-0.16601 0.42111,-0.334872 0.67422,-0.351172 0.0106,-6.75e-4 0.0209,-10e-4 0.0316,-0.0012 z m 35.31367,3.255078 c 0.007,1.5e-4 0.0137,4.35e-4 0.0207,0.0012 0.0373,0.0039 0.0786,0.01624 0.12305,0.03594 1.364,0.602128 2.37308,1.559189 2.81094,3.073047 0.1184,0.410118 0.0187,0.524531 -0.38477,0.519531 -1.3117,-0.01653 -2.90835,-1.735546 -2.83125,-3.052344 0.007,-0.1224 0.0398,-0.243123 0.0625,-0.364453 0.0279,-0.150769 0.0978,-0.215136 0.19883,-0.212891 z m -35.02188,0.786719 c 0.0148,-1.25e-4 0.0298,-1.09e-4 0.0441,3.91e-4 h 4e-4 c 0.43082,0.02036 0.69193,0.424749 0.50273,0.849609 -0.3808,0.857068 -0.76868,1.711758 -1.17773,2.554688 -0.2488,0.512518 -0.63181,0.87094 -1.14727,0.90664 -0.53653,0.0093 -0.8485,-0.367772 -0.7293,-0.83789 0.29544,-1.164798 0.88602,-2.166381 1.63906,-3.067969 0.21174,-0.25307 0.49838,-0.380407 0.82344,-0.403907 0.0151,-9.98e-4 0.0297,-0.0014 0.0445,-0.0016 z m 22.50235,0.332031 c 0.37654,-0.0019 0.6449,0.04287 0.90117,0.163672 1.15253,0.54453 2.1852,1.279513 3.14414,2.132031 0.2088,0.18534 0.35856,0.399247 0.31406,0.709375 -0.0603,0.42267 -0.26926,0.582475 -0.66953,0.484375 -1.47754,-0.361858 -2.82277,-1.00713 -3.98437,-2.036718 -0.1448,-0.12827 -0.28616,-0.268051 -0.39922,-0.425391 -0.33254,-0.46319 -0.18127,-0.867955 0.36406,-0.990625 0.1392,-0.0307 0.28459,-0.03172 0.32969,-0.03672 z m 6.49726,2.048438 c 0.0246,-2.5e-4 0.0493,1.72e-4 0.0738,0.0012 0.14718,0.0065 0.29276,0.03722 0.43555,0.07813 1.60294,0.459188 2.76893,1.47908 3.52226,3.011328 0.21974,0.446668 -0.067,0.854562 -0.65976,0.826562 -0.10507,-0.028 -0.31236,-0.05402 -0.4961,-0.136718 -1.21891,-0.5504 -2.36049,-1.21965 -3.18476,-2.348438 -0.1296,-0.1776 -0.25287,-0.364864 -0.34727,-0.564062 -0.20213,-0.42694 -0.0618,-0.713781 0.38438,-0.831641 0.0662,-0.0175 0.13225,-0.0282 0.19805,-0.0332 0.0247,-0.002 0.0492,-0.0029 0.0738,-0.0031 z m -17.70508,0.09336 v 3.91e-4 c 0.0457,-10e-4 0.0924,0.002 0.14024,0.007 0.47013,0.0536 0.73892,0.444355 0.57305,0.901953 -0.34346,0.949598 -0.88636,1.75941 -1.67383,2.37461 -0.2048,0.160048 -0.32167,0.181046 -0.60781,0.173046 -1.23626,-0.147198 -1.0888,-0.242962 -0.6336,-1.14375 0.36157,-0.715468 0.72924,-1.429925 1.3543,-1.953125 0.25644,-0.214428 0.52771,-0.357156 0.84765,-0.360156 z m -6.52421,0.0418 c 0.17079,3.29e-4 0.34168,0.0528 0.48593,0.157813 0.26506,0.192528 0.34436,0.528365 0.16836,0.940625 -0.39947,0.935458 -0.90213,1.806681 -1.58906,2.549609 -0.20214,0.2184 -0.43673,0.376875 -0.75273,0.371875 -0.49295,-0.008 -0.6686,-0.187991 -0.6543,-0.787109 0.0259,-0.4111 0.19808,-0.862088 0.41562,-1.291016 0.344,-0.677328 0.81576,-1.252097 1.38243,-1.740625 0.14733,-0.12698 0.32766,-0.193781 0.50976,-0.200781 0.0114,-4.44e-4 0.0226,-4.13e-4 0.034,-3.91e-4 z m 11.91523,0.03984 c 0.24347,0 0.68573,0.0037 1.11719,0.128515 0.0691,0.0198 0.14376,0.02918 0.20586,0.06328 0.2456,0.135468 0.52878,0.287673 0.51328,0.608203 -0.0141,0.293328 -0.31992,0.341578 -0.54258,0.405078 -1.21973,0.34693 -2.47147,0.438056 -3.72851,0.460156 -0.3648,0.0067 -0.71367,-0.106109 -0.95821,-0.423437 -0.22343,-0.29067 -0.17772,-0.478924 0.14922,-0.633594 0.96746,-0.45733 1.99896,-0.570303 3.24375,-0.608203 z m -43.230077,1.110547 c -10e-7,0 0.213797,0.07858 0.312497,0.134375 0.31499,0.178278 0.88125,0.634375 0.88125,0.634375 h -7.8e-4 c 1.16144,0.859258 2.16291,1.906659 3.11485,3.010937 2.28877,2.655184 3.92984,5.722861 5.31835,8.959375 1.97544,4.604222 3.54229,9.361244 4.93243,14.183594 0.3296,1.142938 0.78878,2.215618 1.31172,3.266016 0.89011,1.788526 1.52174,3.67865 2.11054,5.591406 0.50105,1.627196 0.9755,3.257225 1.2211,4.950781 0.0451,0.310133 0.0763,0.620453 -0.0102,0.925783 -0.0949,0.33653 -0.29642,0.39781 -0.5668,0.18554 -0.1696,-0.13307 -0.28451,-0.31266 -0.32851,-0.52226 -0.244,-1.156797 -0.75181,-2.202609 -1.25899,-3.246875 -0.70746,-1.456528 -1.38676,-2.938707 -2.375,-4.215235 -1.0888,-1.406396 -1.93984,-2.963106 -2.80117,-4.514844 -1.04747,-1.886616 -1.78445,-3.920879 -2.38125,-5.996875 -1.2296,-4.27732 -2.74127,-8.445554 -4.31914,-12.591406 -0.64747,-1.701586 -1.25824,-3.419217 -1.99531,-5.083203 l -0.39219,-0.7875 c 0.2302,0.17762 0.38918,0.348406 0.5043,0.490234 0.0136,0.0156 0.0256,0.03166 0.0383,0.04766 0.0524,0.06603 0.10005,0.1344 0.14805,0.2 1.38478,1.889586 2.54427,3.924679 3.51093,6.071875 2.10077,4.66744 3.704,9.53233 5.2336,14.42539 0.33146,1.059428 0.8976,2.007194 1.37734,2.994922 0.92319,1.901066 1.86649,3.791191 2.80195,5.685547 0.0365,0.0741 0.0805,0.144888 0.1211,0.217188 h 3.9e-4 c -0.1976,-1.069068 -0.51481,-2.094107 -0.99961,-3.034375 -1.97279,-3.826124 -3.30137,-7.92305 -4.74297,-11.975 -1.0472,-2.943466 -2.32759,-5.789105 -3.45586,-8.699219 -1.57328,-4.058562 -3.90481,-7.599251 -6.7832,-10.765235 z m 22.683207,0.473047 c 0.11718,-0.004 0.25445,0.04545 0.41445,0.147265 0.19413,0.12346 0.39596,0.255222 0.48476,0.482422 0.44506,1.140788 0.72801,2.313806 0.56641,3.558594 -0.0477,0.370138 -0.15278,0.721597 -0.57305,0.804297 -0.41787,0.08213 -0.71217,-0.133141 -0.94257,-0.469141 -0.47013,-0.685588 -0.63016,-1.464281 -0.63516,-2.294141 0.0144,-0.595198 0.0883,-1.185775 0.25898,-1.759375 0.092,-0.308498 0.23087,-0.462923 0.42618,-0.469921 z m -12.3168,0.915234 c 0.0949,-0.0015 0.19966,0.02791 0.32266,0.09141 0.93758,0.48507 1.65112,1.21458 2.24765,2.08711 0.12613,0.184528 0.21481,0.38874 0.22891,0.61914 0.0187,0.30986 -0.17513,0.532281 -0.46446,0.538281 h -3.9e-4 c -0.17014,-0.0037 -0.33458,-0.04435 -0.48632,-0.11875 -0.9664,-0.474928 -1.72887,-1.190237 -2.28086,-2.140625 -0.15286,-0.263728 -0.22971,-0.54367 0.009,-0.825 0.13599,-0.160458 0.26572,-0.249562 0.42383,-0.251562 z m 17.76484,0.894531 c 0.25966,-0.0039 0.46909,0.203889 0.55039,0.599219 0.088,0.428258 0.0883,0.864679 0.0984,1.249219 -0.0139,0.572788 -0.008,1.098921 -0.175,1.600781 -0.20987,0.629328 -0.70533,0.779818 -1.2168,0.380078 -0.11946,-0.0936 -0.21193,-0.207086 -0.22421,-0.366016 -0.0749,-0.973858 -0.0571,-1.939421 0.2621,-2.874609 0.044,-0.12906 0.0955,-0.252756 0.2,-0.347656 0.1755,-0.16001 0.34927,-0.239016 0.50508,-0.241016 z m 7.31797,0.453125 c 0.32027,-5.3e-4 0.62582,0.07343 0.84688,0.334766 0.1067,0.1256 0.23472,0.291051 0.0414,0.450781 -0.88587,0.732268 -1.85264,1.278309 -2.93984,1.387109 -0.4288,-0.03227 -0.7832,-0.0884 -1.10586,-0.271875 -0.38587,-0.218658 -0.41852,-0.435842 -0.11719,-0.75664 0.0666,-0.07093 0.13804,-0.141397 0.21914,-0.191797 0.93995,-0.58667 1.94697,-0.950344 3.05547,-0.952344 z m -21.45586,2.289453 c 0.24578,-0.0032 0.47352,0.16351 0.71992,0.53711 0.62213,0.944258 1.14056,1.932537 1.10586,3.133593 -0.0197,0.2096 -0.0245,0.421997 -0.0621,0.628125 -0.084,0.45812 -0.29407,0.576786 -0.71914,0.428516 -0.23973,-0.08373 -0.40366,-0.260946 -0.53086,-0.477734 -0.57307,-0.976528 -0.97226,-2.01962 -1.11093,-3.160938 -0.0763,-0.627198 0.014,-0.888869 0.34414,-1.030469 0.0873,-0.0375 0.17122,-0.0572 0.25312,-0.0582 z m 24.11992,0.417969 c 0.1364,0.002 0.27311,0.02272 0.40938,0.05742 0.2392,0.06107 0.3592,0.243541 0.4125,0.469141 0.0488,0.205858 0.0807,0.43032 -0.12891,0.57539 -1.072,0.740518 -2.16455,1.430766 -3.5125,1.447266 -0.3008,-0.0059 -0.59961,-0.01675 -0.88281,-0.135938 -0.43973,-0.18507 -0.52285,-0.474042 -0.24258,-0.876172 0.2565,-0.367998 0.6267,-0.58621 1.02617,-0.71875 0.83093,-0.275458 1.67252,-0.516332 2.51172,-0.764062 0.13465,-0.0399 0.27063,-0.0563 0.40703,-0.0543 z m -13.65546,1.424609 c 0.0178,1.2e-4 0.036,7.04e-4 0.0543,0.0016 0.49784,0.02347 0.66027,0.188702 0.63867,0.8375 -0.0773,0.803458 -0.29284,1.702089 -0.74804,2.524219 -0.20454,0.369588 -0.46366,0.69345 -0.83086,0.90625 -0.3296,0.190908 -0.64613,0.13935 -0.94531,-0.06758 -0.29791,-0.20587 -0.29922,-0.496423 -0.22032,-0.826563 0.21358,-0.894388 0.44344,-1.781969 0.90664,-2.579297 0.26273,-0.452085 0.59242,-0.79981 1.14493,-0.796094 z m 7.82109,0.607032 c 0.29808,-0.0047 0.42953,0.229895 0.43008,0.702343 0.0107,0.63333 -0.24962,1.078296 -0.59336,1.471094 -0.3728,0.42613 -0.82223,0.759424 -1.30196,1.046094 -0.1968,0.11781 -0.40689,0.182946 -0.60156,0.01016 -0.18109,-0.1608 -0.20429,-0.370509 -0.15039,-0.612109 0.12347,-0.55092 0.12318,-1.138329 0.55625,-1.580469 0.34532,-0.35226 0.70872,-0.668552 1.14766,-0.882422 0.20767,-0.10128 0.37779,-0.152687 0.51328,-0.154687 z m -15.71992,2.638672 c 0.007,-1.31e-4 0.0139,-1.88e-4 0.0207,0 0.17063,0.0049 0.34943,0.108198 0.50273,0.316796 0.40267,0.54827 0.5113,1.194944 0.5254,1.883204 -0.002,0.854128 -0.35309,1.602353 -0.78907,2.307421 -0.25014,0.40509 -0.57862,0.485861 -1.00156,0.350391 -0.38773,-0.124 -0.49648,-0.441198 -0.50898,-0.811328 -0.0387,-1.126658 0.245,-2.191752 0.5914,-3.24375 0.0387,-0.11733 0.0904,-0.230113 0.13516,-0.345313 0.1161,-0.297017 0.31261,-0.453389 0.52422,-0.457421 z m 38.15429,0.110937 c 0.32189,0.0049 0.64758,0.02691 0.97735,0.06641 0.6784,0.08133 1.3387,0.243123 1.9539,0.625781 -0.37333,0.0261 -0.7471,0.05201 -1.1207,0.07891 -2.44767,0.17733 -4.67215,1.049787 -6.83828,2.214843 -4.04901,2.178136 -7.27503,5.28829 -9.91797,9.107422 -1.74102,2.515736 -3.15177,5.226481 -4.4707,7.996875 -1.60534,3.373064 -3.44599,6.608435 -5.36172,9.798829 -0.45653,0.759998 -0.88548,1.540283 -1.42305,2.243753 -0.2944,0.3848 -0.57423,0.79732 -1.13554,0.90586 0.0701,-0.17974 0.13923,-0.36026 0.21093,-0.53946 0.87888,-2.195126 1.66111,-4.434985 2.68164,-6.564841 2.26128,-4.71973 4.71071,-9.331147 7.79336,-13.535937 3.11141,-4.244462 6.80528,-7.85449 11.16016,-10.708594 1.60896,-1.054728 3.3251,-1.652463 5.16992,-1.689063 0.10644,-0.0018 0.2134,-0.0028 0.3207,-7.81e-4 z m -19.23281,0.175 c 0.34569,0.0029 0.46505,0.1975 0.45352,0.676563 -0.0115,0.567728 -0.20232,1.074266 -0.51485,1.528124 -0.49013,0.71226 -1.07813,1.333324 -1.72187,1.894922 -0.2488,0.21734 -0.53413,0.383735 -0.87813,0.377735 -0.35333,-0.006 -0.50828,-0.172403 -0.47148,-0.539063 0.0429,-0.426138 0.16313,-0.838664 0.39726,-1.189062 0.58053,-0.869318 1.20213,-1.706701 1.93946,-2.442969 0.15067,-0.15012 0.32541,-0.24555 0.53554,-0.28125 0.0685,-0.0116 0.13138,-0.02005 0.18868,-0.02305 0.0251,-0.0015 0.0488,-0.0021 0.0719,-0.002 z m -14.30312,0.342969 c 0.1976,-0.0056 0.39804,0.103464 0.5707,0.327734 0.46293,0.60133 0.73389,1.273258 0.75469,2.053516 0.0112,0.422398 0.0587,0.844025 0.0894,1.265625 -0.007,0.299458 0.009,0.597862 -0.0434,0.894922 -0.048,0.274138 -0.19761,0.40385 -0.46641,0.41875 -0.45387,0.0253 -0.81065,-0.168352 -1.02265,-0.563282 -0.58849,-1.095998 -0.81464,-2.275412 -0.6461,-3.525 0.0248,-0.183738 0.10272,-0.356668 0.20938,-0.511328 0.162,-0.23493 0.3567,-0.354937 0.5543,-0.360937 z m 28.93867,0.03086 -0.61406,0.338672 3.9e-4,-0.002 c -0.75029,0.461978 -1.50691,0.91205 -2.22891,1.423828 -2.76128,1.957046 -5.11203,4.364535 -7.33203,6.950391 -4.07675,4.74933 -7.28753,10.080393 -10.075,15.714453 -1.07386,2.170666 -2.12469,4.352789 -3.07774,6.58399 -0.0141,0.033 -0.0404,0.059 -0.0652,0.0945 -0.0936,-0.1096 -0.005,-0.20465 0.0187,-0.29375 0.65759,-2.453337 1.56394,-4.811446 2.58047,-7.123442 0.9856,-2.241066 1.93858,-4.500167 3.14844,-6.626563 1.89332,-3.328252 3.91899,-6.560089 6.43359,-9.426953 2.95758,-3.371852 6.51776,-5.823707 10.61758,-7.434375 v -7.81e-4 l 0.0101,-0.0027 c 0.0112,-0.0047 0.022,-0.0097 0.0332,-0.01367 0.0102,-0.004 0.0216,-0.0052 0.032,-0.0082 z m -18.75,0.07852 c 0.13665,1.87e-4 0.27369,0.02705 0.40039,0.08008 0.15914,0.0664 0.21963,0.155006 0.17773,0.341406 -0.24374,1.073588 -0.78802,1.968278 -1.49922,2.766406 -0.0403,0.04483 -0.0894,0.08433 -0.14062,0.115235 -0.2568,0.15575 -0.55249,0.27579 -0.81836,0.13125 -0.23096,-0.12533 -0.16426,-0.441717 -0.19336,-0.623047 -0.002,-0.43173 0.0914,-0.774403 0.27969,-1.089063 0.29866,-0.499198 0.66402,-0.945893 1.03789,-1.382421 0.18267,-0.213 0.43779,-0.324082 0.69765,-0.338282 0.0195,-0.0011 0.0387,-0.0016 0.0582,-0.0016 z m -3.22969,2.773047 c 0.27042,-0.0025 0.54937,0.191071 0.66641,0.503125 0.11888,0.317328 0.0876,0.643303 0.0156,0.957421 -0.17866,0.7784 -0.44584,1.522829 -0.86875,2.198829 -0.0195,0.0315 -0.039,0.06218 -0.0598,0.09258 -0.324,0.471738 -0.7414,0.696337 -1.07578,0.579297 -0.3536,-0.12397 -0.57066,-0.574637 -0.55196,-1.378907 0.1245,-0.981598 0.67239,-1.967965 1.49531,-2.790625 0.10266,-0.10263 0.2262,-0.153937 0.35274,-0.160937 0.009,-4.92e-4 0.0174,-7e-4 0.0262,-7.81e-4 z m -12.47578,1.9125 c 0.0162,4.8e-5 0.0329,8.43e-4 0.0496,0.0023 0.0895,0.009 0.18781,0.03986 0.29414,0.09336 0.516,0.259738 0.82029,0.728418 1.02109,1.255078 0.38321,1.005868 0.58048,2.050487 0.47461,3.140625 -0.0108,0.1104 -0.005,0.223435 0.003,0.334375 0.0395,0.537328 -0.29113,0.780437 -0.77188,0.548437 -0.66693,-0.322128 -1.09444,-0.874523 -1.32617,-1.589453 -0.0949,-0.293598 -0.16483,-0.599089 -0.21601,-0.904687 -0.0736,-0.4416 -0.11333,-0.888413 -0.11133,-1.338281 8e-4,-0.3488 -0.003,-0.697874 0.084,-1.038672 0.0793,-0.31007 0.23429,-0.480772 0.45156,-0.501172 0.0155,-0.0013 0.0311,-0.002 0.0473,-0.002 z m 18.73281,0.350781 c 0.003,-1.01e-4 0.005,-1.25e-4 0.008,0 0.0595,0.003 0.0897,0.07153 0.10508,0.136328 0.0342,0.14373 0.0543,0.291094 0.0687,0.371094 -0.0128,0.449068 -0.10515,0.809714 -0.28008,1.139844 -0.53734,1.012796 -1.24537,1.881317 -2.09257,2.628515 -0.12934,0.11418 -0.27293,0.191978 -0.45078,0.205078 -0.56853,0.0419 -0.763,-0.183688 -0.6875,-0.773828 0.18772,-1.471996 1.00438,-2.487294 2.16171,-3.264062 0.34,-0.22823 0.76052,-0.213485 1.10586,-0.421485 0.0234,-0.01444 0.0437,-0.02078 0.0617,-0.02148 z m -7.67539,3.052344 c 0.036,9.3e-5 0.0727,0.0017 0.10977,0.0055 0.38774,0.0328 0.6485,0.272881 0.625,0.674219 -0.0747,1.290398 -0.52895,2.412457 -1.45508,3.303125 -0.0261,0.0252 -0.0574,0.04424 -0.0875,0.06484 -0.31093,0.21097 -0.64246,0.381007 -1.00352,0.167969 -0.35646,-0.21013 -0.29075,-0.589594 -0.27265,-0.933594 -0.0165,-1.145598 0.46665,-2.063486 1.19492,-2.871484 0.23824,-0.26413 0.52159,-0.401766 0.85351,-0.409766 v -3.91e-4 c 0.0119,-2.5e-4 0.0236,-4.22e-4 0.0356,-3.9e-4 z m -7.94453,1.360937 c 0.10251,5.2e-4 0.21899,0.04436 0.35469,0.13086 0.2992,0.190668 0.46997,0.490434 0.60117,0.815234 0.348,0.863198 0.42735,1.780341 0.49805,2.769141 0.056,0.414928 0.002,0.876431 -0.28243,1.282031 -0.3168,0.451378 -0.92144,0.446158 -1.15742,-0.04375 -0.5832,-1.210138 -0.94757,-2.472915 -0.68437,-3.850781 0.0491,-0.25813 0.12734,-0.503632 0.24414,-0.7375 0.12233,-0.246 0.2553,-0.366105 0.42617,-0.365235 z m 11.02422,0.146875 c 0.0121,1.16e-4 0.0245,6.81e-4 0.0367,0.0016 0.11741,0.008 0.24304,0.05213 0.38515,0.128125 0.34531,0.184798 0.51142,0.488357 0.44102,0.891015 -0.1368,0.781808 -0.26634,1.565895 -0.49805,2.326953 -0.1808,0.59387 -0.463,1.103393 -0.93125,1.514063 -0.3608,0.31627 -0.73085,0.324728 -1.1375,0.186328 -0.31016,-0.10533 -0.31496,-0.367529 -0.29336,-0.530469 0.10533,-1.374396 0.29946,-2.608277 1.02266,-3.677343 0.1368,-0.20213 0.28564,-0.40074 0.45391,-0.57461 0.17686,-0.182493 0.33975,-0.267356 0.5207,-0.265625 z m -2.72422,5.04961 c 0.41766,0.0047 0.68213,0.344029 0.6707,0.933203 -0.0205,1.045828 -0.21606,2.047997 -0.70273,2.978125 -0.31653,0.605328 -0.7734,0.929956 -1.45313,0.872656 -0.23787,-0.02 -0.37395,-0.114403 -0.37695,-0.389063 -0.003,-0.347738 -0.0342,-0.695378 -0.0531,-1.042578 0.0315,-0.599198 0.0618,-1.194922 0.21914,-1.77539 0.17974,-0.66267 0.5784,-1.140738 1.1664,-1.435938 0.17742,-0.08923 0.34199,-0.134625 0.48907,-0.140625 0.0138,-5.47e-4 0.0271,-5.43e-4 0.0406,-3.9e-4 z m -9.21484,0.199609 c 0.022,3.28e-4 0.0451,0.0021 0.0687,0.0051 0.3464,0.0395 0.64237,0.189305 0.8957,0.434375 0.23867,0.2304 0.44729,0.488282 0.60703,0.782422 0.35866,0.660228 0.66986,1.347325 1.06133,1.989453 0.16126,0.2648 0.23066,0.573694 0.20586,0.896094 h -3.9e-4 c -4.7e-4,0.0613 0.002,0.124228 -7.8e-4,0.186328 -0.0424,0.763728 -0.3479,0.951157 -1.01563,0.624219 -0.0432,-0.0208 -0.0942,-0.03825 -0.12461,-0.07305 -0.85408,-0.978668 -1.88789,-1.830796 -2.12656,-3.244922 -0.0707,-0.42053 -0.0863,-0.840596 0.0195,-1.259766 0.0583,-0.23074 0.18769,-0.335845 0.38828,-0.339843 0.007,-2.5e-4 0.0142,-5e-4 0.0215,-3.91e-4 z m 8.27187,5.449219 c 0.013,-2.81e-4 0.0262,-2.41e-4 0.0394,3.9e-4 0.0704,0.003 0.14438,0.01958 0.22188,0.05078 0.37787,0.151198 0.64467,0.514969 0.63867,0.937109 -0.008,0.0451 -0.004,0.182505 -0.0598,0.284375 -0.31253,0.570668 -0.50054,1.212006 -0.91094,1.727734 -0.0981,0.1232 -0.18847,0.26053 -0.25195,0.40586 -0.1712,0.393868 -0.46493,0.658331 -0.81133,0.869531 -0.21467,0.1315 -0.44393,0.225632 -0.66953,0.03984 -0.2248,-0.1853 -0.38024,-0.417035 -0.32774,-0.740235 0.016,-0.0976 0.0207,-0.207181 0.0676,-0.288281 0.49894,-0.862398 0.74131,-1.859279 1.30664,-2.685937 0.076,-0.1112 0.16115,-0.216351 0.24805,-0.318751 0.14681,-0.172714 0.31451,-0.278215 0.50898,-0.282421 z" /></g></g><metadata
     id="metadata683"><rdf:RDF><cc:Work
         rdf:about=""><cc:license
           rdf:resource="http://creativecommons.org/publicdomain/zero/1.0/" /><dc:title>Bangladesh Nationalist Party - বাংলাদেশ জাতীয়তাবাদী দল</dc:title></cc:Work><cc:License
         rdf:about="http://creativecommons.org/publicdomain/zero/1.0/"><cc:permits
           rdf:resource="http://creativecommons.org/ns#Reproduction" /><cc:permits
           rdf:resource="http://creativecommons.org/ns#Distribution" /><cc:permits
           rdf:resource="http://creativecommons.org/ns#DerivativeWorks" /></cc:License></rdf:RDF></metadata></svg>
